<svg id="Layer_1" data-name="Layer 1" xmlns="http://www.w3.org/2000/svg" viewBox="0 0 475.22 584.16"><defs><style>.cls-1{fill:#ecf0f5;}</style></defs><title>appleLogo</title><path class="cls-1" d="M140.75,482.12V465.05c.94-1.38.41-2.92.47-4.4a210.88,210.88,0,0,1,4.91-37.37c8.2-36.44,25.09-67.8,54.35-91.71a138,138,0,0,1,82.2-31.71c13.49-.69,26.5,1.9,39.29,5.95,13.17,4.17,25.8,9.81,38.79,14.48,6.13,2.21,12.33,4.16,18.85,4.76,7.12.66,13.85-1.32,20.48-3.6,15-5.16,29.44-11.69,44.56-16.46,13.31-4.19,26.86-7.19,40.87-7a158.06,158.06,0,0,1,33.83,3.82c33.29,7.68,60.47,24.69,80.52,52.64,1,1.46,1.06,2.17-.55,3.18A129.17,129.17,0,0,0,569.17,384c-31.25,37.08-38.83,79.17-24.26,124.84,11.31,35.45,35.94,59.76,69.12,75.74,1.87.9,2.31,1.69,1.66,3.67A340.07,340.07,0,0,1,603.29,620c-10,22.27-22.63,43-36.91,62.67-9.49,13.11-19.27,26-31.32,36.91-21.33,19.39-45.74,25.57-73.57,17.64-9-2.57-17.5-6.51-26.06-10.23A111.7,111.7,0,0,0,359,721.56c-10,2.75-19.34,7.13-28.87,11.08-10.55,4.38-21.36,7.77-32.87,8.38H288a53.46,53.46,0,0,1-14.91-3.34c-13.08-4.85-23.77-13.26-33.42-23-16.4-16.61-29.86-35.56-42.43-55.1-22.93-35.66-38.38-74.51-48-115.72a308.3,308.3,0,0,1-8-57.29C141.16,485.05,141.68,483.51,140.75,482.12Z" transform="translate(-140.75 -157.34)"/><path class="cls-1" d="M385.49,292c12.38-.19,25.11-3.47,37.22-9.2,26.68-12.61,45.91-32.76,59.05-58.94,10-19.9,15.08-40.89,13.46-63.29-.24-3.32-.16-3.37-3.57-3.19a64,64,0,0,0-12,1.8c-36.37,9.08-64.95,29-84.38,61.31-11.91,19.81-19,41.13-17.9,64.54C377.74,293.29,376.44,291.76,385.49,292Z" transform="translate(-140.75 -157.34)"/><path class="cls-1" d="M288,741.49a.94.94,0,0,0,0-.47h9.3a.94.94,0,0,0,0,.47Z" transform="translate(-140.75 -157.34)"/><path class="cls-1" d="M140.75,460.67a1.47,1.47,0,0,0,.47,0c-.06,1.48.47,3-.47,4.4Z" transform="translate(-140.75 -157.34)"/><path class="cls-1" d="M141.21,486.53a2.36,2.36,0,0,0-.46,0v-4.39C141.68,483.51,141.16,485.05,141.21,486.53Z" transform="translate(-140.75 -157.34)"/><path class="cls-1" d="M385.49,292c-9.05-.25-7.75,1.28-8.15-7-1.13-23.41,6-44.73,17.9-64.54,19.43-32.31,48-52.23,84.38-61.31a64,64,0,0,1,12-1.8c3.41-.18,3.33-.13,3.57,3.19,1.62,22.4-3.46,43.39-13.46,63.29-13.14,26.18-32.37,46.33-59.05,58.94C410.6,288.54,397.87,291.82,385.49,292Z" transform="translate(-140.75 -157.34)"/></svg>