<svg id="Layer_1" data-name="Layer 1" xmlns="http://www.w3.org/2000/svg" viewBox="0 0 225.2 190.03"><defs><style>.cls-1{fill:#45bfb0;}.cls-2{fill:#1f141a;}.cls-3{fill:#215952;}.cls-4{fill:#2e8a80;}.cls-5{fill:#abf0d1;}.cls-6{fill:#2ee5a6;}.cls-7{fill:#4d5c54;}.cls-8{fill:#404a47;}.cls-9{fill:#213033;}.cls-10{fill:#78fac4;}.cls-11{fill:#a1dec2;}.cls-12{fill:#2ed69c;}.cls-13{fill:#47574f;}.cls-14{fill:#21544f;}.cls-15{fill:#3d4742;}.cls-16{fill:#2e8078;}.cls-17{fill:#212e30;}.cls-18{fill:#4adea6;}.cls-19{fill:#ededed;}.cls-20{fill:#70e8b8;}.cls-21{fill:#213838;}.cls-22{fill:#268766;}.cls-23{fill:#303333;}.cls-24{fill:#383b38;}.cls-25{fill:#4df0b0;}.cls-26{fill:none;stroke:#4df0b0;stroke-linecap:round;stroke-miterlimit:10;stroke-width:3px;}</style></defs><title>building1</title><polygon class="cls-1" points="118.43 0 24.32 14.04 24.47 40.91 118.58 26.87 118.43 0"/><polygon class="cls-2" points="24.47 40.91 118.58 26.87 118.56 24.72 24.45 38.76 24.47 40.91"/><polygon class="cls-3" points="118.58 26.87 24.47 40.91 24.61 67.78 118.72 53.74 118.58 26.87"/><polygon class="cls-4" points="118.72 53.74 24.61 67.78 24.76 94.64 118.87 80.61 118.72 53.74"/><polygon class="cls-3" points="118.87 80.61 24.76 94.64 24.91 121.51 119.02 107.47 118.87 80.61"/><polygon class="cls-3" points="119.02 107.47 24.91 121.51 25.06 148.38 119.17 134.34 119.02 107.47"/><polygon class="cls-3" points="119.17 134.34 25.06 148.38 25.21 175.25 119.32 161.21 119.17 134.34"/><polygon class="cls-5" points="118.58 26.87 201.7 53.45 201.55 26.58 118.43 0 118.58 26.87"/><polygon class="cls-6" points="201.7 53.45 201.85 80.31 118.72 53.74 118.58 26.87 201.7 53.45"/><polygon class="cls-5" points="201.85 80.31 202 107.18 118.87 80.61 118.72 53.74 201.85 80.31"/><polygon class="cls-6" points="202 107.18 202.14 134.05 119.02 107.47 118.87 80.61 202 107.18"/><polygon class="cls-5" points="202.14 134.05 202.29 160.92 119.17 134.34 119.02 107.47 202.14 134.05"/><polygon class="cls-6" points="202.29 160.92 202.44 187.79 119.32 161.21 119.17 134.34 202.29 160.92"/><polygon class="cls-2" points="24.76 94.64 118.87 80.61 118.86 78.45 24.75 92.5 24.76 94.64"/><polygon class="cls-3" points="24.75 92.5 118.86 78.46 118.85 76.31 24.74 90.35 24.75 92.5"/><polygon class="cls-2" points="24.91 121.51 119.02 107.47 119.01 105.32 24.9 119.36 24.91 121.51"/><polygon class="cls-2" points="25.06 148.38 119.17 134.34 119.16 132.19 25.05 146.23 25.06 148.38"/><polygon class="cls-2" points="25.21 175.25 119.32 161.21 119.31 159.06 25.2 173.1 25.21 175.25"/><polygon class="cls-2" points="24.61 67.78 118.72 53.74 118.71 51.59 24.6 65.63 24.61 67.78"/><path class="cls-7" d="M417.84,522.09v2.15h0l.18,0v.09l3.22,1v-2.15Zm4.41,1.41v2.15l31.52,10.08,0-2.15Zm32.52,10.4v2.15l20.67,6.61v-2.15Zm21.67,6.93V543l15.26,4.88v-2.15Z" transform="translate(-299.27 -497.37)"/><polygon class="cls-7" points="193.42 48.65 193.44 50.8 201.7 53.45 201.69 51.3 193.42 48.65"/><polygon class="cls-3" points="118.71 51.59 201.83 78 201.85 80.31 118.72 53.74 118.71 51.59"/><path class="cls-8" d="M418.14,575.83V578h0l.19,0V578l3.22,1v-2.15Zm4.41,1.41v2.15l31.51,10.08v-2.15Zm32.51,10.4,0,2.15,20.67,6.61v-2.15Zm21.68,6.93v2.15L492,601.59l0-2.15Z" transform="translate(-299.27 -497.37)"/><polygon class="cls-8" points="193.72 102.39 193.73 104.54 202 107.18 201.98 105.03 193.72 102.39"/><polygon class="cls-4" points="118.85 76.31 201.97 102.72 201.98 105.03 118.86 78.46 118.85 76.31"/><polygon class="cls-3" points="25.05 146.23 119.16 132.19 119.15 130.04 25.04 144.08 25.05 146.23"/><polygon class="cls-4" points="119.15 130.04 202.27 156.45 202.28 158.77 119.16 132.19 119.15 130.04"/><polygon class="cls-3" points="24.45 38.76 118.56 24.72 118.55 22.57 24.44 36.61 24.45 38.76"/><polygon class="cls-4" points="118.55 22.57 201.67 48.98 201.69 51.3 118.56 24.72 118.55 22.57"/><polygon class="cls-3" points="119.01 105.32 202.13 131.73 202.15 134.05 119.02 107.47 119.01 105.32"/><path class="cls-8" d="M418.43,629.57l0,2.15h0l.19,0v.09l3.22,1v-2.15Zm4.42,1.41v2.15l31.51,10.07v-2.15Zm32.51,10.39v2.15l20.68,6.61,0-2.15Z" transform="translate(-299.27 -497.37)"/><path class="cls-8" d="M477,648.3v2.15l15.25,4.88v-2.15Zm16.25,5.2v2.15l8.27,2.64v-2.15Z" transform="translate(-299.27 -497.37)"/><path class="cls-9" d="M418.43,629.57h0l3.42,1.09h0Zm4.42,1.4h0l31.51,10.07V641Zm32.51,10.33v.07L476,648v-.11ZM477,648.19v.11l15.25,4.88V653Zm16.25,5.16v.15l8.27,2.64V656Z" transform="translate(-299.27 -497.37)"/><polygon class="cls-3" points="119.31 159.06 202.43 185.47 202.44 187.79 119.32 161.21 119.31 159.06"/><polygon class="cls-10" points="155.5 38.67 155.63 61.17 176.3 67.74 176.18 45.29 155.5 38.67"/><polygon class="cls-10" points="177.49 100.89 177.61 123.39 198.28 129.95 198.16 107.5 177.49 100.89"/><polygon class="cls-11" points="121.97 23.65 122.97 23.97 122.84 1.43 121.99 1.14 121.84 1.09 121.84 1.09 121.97 23.65"/><polygon class="cls-12" points="121.99 27.96 122.13 52.67 123.13 52.99 122.99 28.28 121.99 27.96"/><polygon class="cls-11" points="122.14 54.83 122.26 77.39 123.26 77.71 123.14 55.15 122.14 54.83"/><polygon class="cls-12" points="122.29 81.7 122.42 106.41 123.42 106.73 123.29 82.02 122.29 81.7"/><polygon class="cls-11" points="122.44 108.56 122.56 131.13 123.56 131.44 123.44 108.88 122.44 108.56"/><polygon class="cls-12" points="122.58 135.43 122.72 160.15 123.72 160.46 123.58 135.75 122.58 135.43"/><polygon class="cls-13" points="121.98 25.81 121.99 27.96 122.99 28.28 122.98 26.13 121.98 25.81"/><polygon class="cls-14" points="122.13 52.67 122.14 54.83 123.14 55.15 123.13 52.99 122.13 52.67"/><polygon class="cls-15" points="122.27 79.55 122.29 81.7 123.29 82.02 123.28 79.87 122.27 79.55"/><polygon class="cls-16" points="122.26 77.39 122.27 79.55 123.28 79.87 123.26 77.71 122.26 77.39"/><polygon class="cls-16" points="122.56 131.13 122.57 133.28 123.57 133.59 123.56 131.44 122.56 131.13"/><polygon class="cls-16" points="121.96 23.65 121.98 25.81 122.98 26.13 122.97 23.97 121.96 23.65"/><polygon class="cls-14" points="122.42 106.41 122.44 108.56 123.44 108.89 123.42 106.73 122.42 106.41"/><polygon class="cls-15" points="122.57 133.28 122.58 135.43 123.58 135.75 123.57 133.6 122.57 133.28"/><polygon class="cls-17" points="122.57 133.28 123.57 133.6 123.57 133.59 122.57 133.28 122.57 133.28"/><polygon class="cls-18" points="122.73 162.3 122.88 179.17 123.88 179.49 123.73 162.62 122.73 162.3"/><polygon class="cls-14" points="122.72 160.15 122.73 162.3 123.73 162.62 123.72 160.46 122.72 160.15"/><polygon class="cls-11" points="154.35 11.49 154.48 33.98 155.48 34.3 155.35 11.83 154.35 11.49"/><polygon class="cls-12" points="154.5 38.35 154.64 63 155.64 63.32 155.63 61.17 155.5 38.68 155.5 38.67 154.5 38.35"/><polygon class="cls-11" points="154.65 65.22 154.78 87.72 155.78 88.04 155.65 65.54 154.65 65.22"/><polygon class="cls-12" points="154.8 92.09 154.94 116.74 155.94 117.06 155.8 92.41 154.8 92.09"/><polygon class="cls-11" points="154.95 118.96 155.07 141.46 156.07 141.78 155.95 119.28 154.95 118.96"/><polygon class="cls-12" points="155.1 145.83 155.23 170.47 156.24 170.79 156.1 146.15 155.1 145.83"/><polygon class="cls-13" points="154.49 36.21 154.5 38.35 155.5 38.67 155.49 36.52 154.49 36.21"/><polygon class="cls-14" points="154.64 63 154.65 65.22 155.65 65.54 155.64 63.32 154.64 63"/><polygon class="cls-15" points="154.79 89.94 154.8 92.09 155.8 92.41 155.79 90.26 154.79 89.94"/><polygon class="cls-16" points="154.78 87.72 154.79 89.94 155.79 90.26 155.78 88.04 154.78 87.72"/><polygon class="cls-16" points="155.07 141.46 155.08 143.61 156.09 143.92 156.07 141.78 155.07 141.46"/><polygon class="cls-16" points="154.48 33.98 154.49 36.2 155.49 36.53 155.48 34.3 154.48 33.98"/><polygon class="cls-14" points="154.94 116.74 154.95 118.96 155.95 119.28 155.94 117.06 154.94 116.74"/><polygon class="cls-15" points="155.09 143.68 155.1 145.83 156.1 146.15 156.09 144 155.09 143.68"/><polygon class="cls-17" points="155.09 143.68 156.09 144 156.09 143.93 155.08 143.61 155.09 143.68"/><polygon class="cls-19" points="155.4 187.57 156.4 187.89 155.39 187.56 155.4 187.57"/><polygon class="cls-18" points="155.25 172.7 155.4 187.57 156.4 187.89 156.25 173.02 155.25 172.7"/><polygon class="cls-14" points="155.23 170.47 155.25 172.7 156.25 173.02 156.24 170.79 155.23 170.47"/><polygon class="cls-11" points="176.03 18.42 176.15 40.87 177.15 41.19 177.03 18.76 176.03 18.42"/><polygon class="cls-12" points="176.18 45.28 176.31 69.89 177.31 70.21 177.18 45.61 176.18 45.28"/><polygon class="cls-11" points="176.33 72.15 176.45 94.61 177.45 94.92 177.33 72.47 176.33 72.15"/><polygon class="cls-12" points="176.47 99.02 176.61 123.62 177.61 123.94 177.61 123.39 177.49 100.89 177.48 99.34 176.47 99.02"/><polygon class="cls-11" points="176.62 125.89 176.75 148.34 177.75 148.66 177.63 126.21 176.62 125.89"/><polygon class="cls-12" points="176.77 152.76 176.91 177.36 177.91 177.68 177.77 153.08 176.77 152.76"/><polygon class="cls-13" points="176.16 43.14 176.18 45.29 177.18 45.61 177.17 43.46 176.16 43.14"/><polygon class="cls-14" points="176.31 69.89 176.32 72.15 177.33 72.47 177.31 70.21 176.31 69.89"/><polygon class="cls-15" points="176.46 96.87 176.47 99.02 177.48 99.34 177.47 97.19 176.46 96.87"/><polygon class="cls-16" points="176.45 94.61 176.46 96.87 177.46 97.19 177.45 94.92 176.45 94.61"/><polygon class="cls-16" points="176.75 148.34 176.76 150.49 177.76 150.81 177.75 148.66 176.75 148.34"/><polygon class="cls-16" points="176.15 40.87 176.16 43.14 177.17 43.46 177.15 41.19 176.15 40.87"/><polygon class="cls-14" points="176.61 123.63 176.62 125.89 177.63 126.21 177.61 123.94 176.61 123.63"/><polygon class="cls-15" points="176.76 150.61 176.77 152.76 177.77 153.08 177.76 150.93 176.76 150.61"/><polygon class="cls-17" points="176.76 150.61 177.76 150.93 177.76 150.81 176.76 150.49 176.76 150.61"/><polygon class="cls-19" points="177.07 185.5 178.07 185.82 177.07 185.5 177.07 185.5"/><polygon class="cls-18" points="176.92 179.63 177.07 185.5 178.07 185.82 177.92 179.95 176.92 179.63"/><polygon class="cls-14" points="176.91 177.36 176.92 179.63 177.92 179.95 177.91 177.68 176.91 177.36"/><polygon class="cls-19" points="192.28 23.61 193.29 23.94 193.28 23.91 192.28 23.58 192.28 23.61"/><polygon class="cls-11" points="192.28 23.61 192.41 46.03 193.41 46.35 193.29 23.94 192.28 23.61"/><polygon class="cls-12" points="192.43 50.48 192.57 75.05 193.57 75.37 193.44 50.8 192.43 50.48"/><polygon class="cls-11" points="192.58 77.35 192.71 99.77 193.71 100.09 193.58 77.67 192.58 77.35"/><polygon class="cls-12" points="192.73 104.22 192.74 105.77 193.74 106.09 193.73 104.54 192.73 104.22"/><polygon class="cls-13" points="192.42 48.33 192.43 50.48 193.44 50.8 193.42 48.65 192.42 48.33"/><polygon class="cls-14" points="192.57 75.05 192.58 77.35 193.58 77.67 193.57 75.37 192.57 75.05"/><polygon class="cls-15" points="192.72 102.07 192.73 104.22 193.73 104.54 193.72 102.39 192.72 102.07"/><polygon class="cls-16" points="192.71 99.77 192.72 102.07 193.72 102.39 193.71 100.09 192.71 99.77"/><polygon class="cls-16" points="192.41 46.03 192.42 48.33 193.42 48.65 193.41 46.35 192.41 46.03"/><polygon class="cls-12" points="192.87 128.79 193.87 129.11 193.87 128.55 192.87 128.23 192.87 128.79"/><polygon class="cls-11" points="192.88 131.09 193 153.51 194.01 153.83 193.88 131.41 192.88 131.09"/><polygon class="cls-12" points="193.03 157.96 193.16 182.53 194.17 182.84 194.03 158.28 193.03 157.96"/><polygon class="cls-16" points="193 153.51 193.02 155.66 194.02 155.98 194 153.83 193 153.51"/><polygon class="cls-14" points="192.87 128.79 192.88 131.09 193.88 131.41 193.87 129.11 192.87 128.79"/><polygon class="cls-15" points="193.02 155.81 193.03 157.96 194.03 158.28 194.02 156.13 193.02 155.81"/><polygon class="cls-17" points="193.02 155.81 194.02 156.13 194.02 155.97 193.02 155.66 193.02 155.81"/><polygon class="cls-18" points="193.18 184.82 193.33 186.65 194.33 186.97 194.18 185.15 193.18 184.82"/><polygon class="cls-14" points="193.16 182.53 193.18 184.82 194.18 185.15 194.17 182.84 193.16 182.53"/><polygon class="cls-20" points="192.74 105.77 192.86 128.23 193.87 128.55 193.74 106.09 192.74 105.77"/><polygon class="cls-21" points="32.59 93.48 24.76 94.64 24.9 119.31 32.73 118.14 32.59 93.48"/><polygon class="cls-2" points="32.59 93.42 24.76 94.59 24.76 94.64 32.59 93.48 32.59 93.42"/><polygon class="cls-21" points="43.4 91.86 35.57 93.03 35.71 117.63 43.54 116.47 43.4 91.86"/><polygon class="cls-2" points="43.4 91.75 35.57 92.92 35.57 93.03 43.4 91.86 43.4 91.75"/><polygon class="cls-21" points="54.21 90.25 46.38 91.42 46.52 115.96 54.34 114.79 54.21 90.25"/><polygon class="cls-2" points="54.21 90.07 46.38 91.24 46.38 91.42 54.21 90.25 54.21 90.07"/><polygon class="cls-21" points="65.02 88.64 57.19 89.81 57.33 114.29 65.16 113.12 65.02 88.64"/><polygon class="cls-2" points="65.02 88.4 57.19 89.57 57.19 89.81 65.02 88.64 65.02 88.4"/><polygon class="cls-21" points="75.83 87.03 68 88.19 68.14 112.62 75.97 111.45 75.83 87.03"/><polygon class="cls-2" points="75.83 86.73 68 87.9 68 88.19 75.83 87.03 75.83 86.73"/><polygon class="cls-21" points="86.64 85.41 78.81 86.58 78.95 110.94 86.77 109.78 86.64 85.41"/><polygon class="cls-2" points="86.64 85.06 78.81 86.23 78.81 86.58 86.64 85.42 86.64 85.06"/><polygon class="cls-21" points="97.45 83.92 89.62 85.09 89.76 109.69 97.58 108.52 97.45 83.92"/><polygon class="cls-2" points="97.58 108.52 89.76 109.69 89.76 109.81 97.59 108.64 97.58 108.52"/><polygon class="cls-21" points="108.26 82.25 100.43 83.42 100.57 108.08 108.39 106.91 108.26 82.25"/><polygon class="cls-2" points="108.39 106.91 100.57 108.08 100.57 108.14 108.39 106.97 108.39 106.91"/><polygon class="cls-21" points="118.87 80.61 111.24 81.75 111.38 106.46 119.01 105.33 118.87 80.61"/><polygon class="cls-22" points="118.88 80.61 118.87 80.61 119.01 105.32 119.01 105.33 119.01 105.32 119.02 105.33 119.2 105.3 119.07 80.67 118.88 80.61"/><polygon class="cls-2" points="119.01 105.32 119.01 105.32 111.38 106.46 111.38 106.47 119.01 105.33 119.01 105.32"/><polygon class="cls-23" points="118.88 80.61 119.07 80.67 119.07 80.58 118.88 80.61"/><polygon class="cls-21" points="119.01 105.33 119.02 105.33 119.01 105.32 119.01 105.33"/><polygon class="cls-2" points="32.29 39.68 24.47 40.85 24.47 40.91 32.29 39.74 32.29 39.68"/><polygon class="cls-21" points="32.29 39.74 24.47 40.91 24.6 65.57 32.43 64.4 32.29 39.74"/><polygon class="cls-2" points="43.1 38.01 35.28 39.18 35.28 39.3 43.1 38.13 43.1 38.01"/><polygon class="cls-21" points="43.1 38.13 35.28 39.3 35.41 63.9 43.24 62.73 43.1 38.13"/><polygon class="cls-2" points="53.91 36.34 46.09 37.51 46.09 37.68 53.91 36.52 53.91 36.34"/><polygon class="cls-21" points="53.91 36.52 46.09 37.68 46.22 62.22 54.05 61.06 53.91 36.52"/><polygon class="cls-2" points="64.72 34.67 56.89 35.83 56.9 36.07 64.72 34.9 64.72 34.67"/><polygon class="cls-21" points="64.72 34.9 56.9 36.07 57.03 60.55 64.86 59.38 64.72 34.9"/><polygon class="cls-2" points="75.53 32.99 67.7 34.16 67.7 34.46 75.53 33.29 75.53 32.99"/><polygon class="cls-21" points="75.53 33.29 67.7 34.46 67.84 58.88 75.67 57.71 75.53 33.29"/><polygon class="cls-2" points="86.34 31.32 78.51 32.49 78.51 32.84 86.34 31.68 86.34 31.32"/><polygon class="cls-21" points="86.34 31.68 78.52 32.85 78.65 57.21 86.48 56.04 86.34 31.68"/><polygon class="cls-21" points="97.15 30.19 89.33 31.36 89.46 55.95 97.29 54.78 97.15 30.19"/><polygon class="cls-2" points="97.29 54.78 89.46 55.95 89.46 56.07 97.29 54.91 97.29 54.78"/><polygon class="cls-21" points="107.96 28.52 100.13 29.68 100.27 54.34 108.1 53.17 107.96 28.52"/><polygon class="cls-2" points="108.1 53.17 100.27 54.34 100.27 54.4 108.1 53.23 108.1 53.17"/><polygon class="cls-21" points="118.58 26.87 110.94 28.01 111.08 52.73 118.71 51.59 118.58 26.87"/><polygon class="cls-22" points="118.58 26.87 118.58 26.87 118.71 51.59 118.71 51.59 118.71 51.59 118.72 51.59 118.91 51.56 118.77 26.93 118.58 26.87"/><polygon class="cls-2" points="118.71 51.59 118.71 51.59 111.08 52.73 111.08 52.73 118.71 51.59 118.71 51.59"/><polygon class="cls-24" points="118.58 26.87 118.77 26.93 118.77 26.84 118.58 26.87"/><polygon class="cls-21" points="118.71 51.59 118.72 51.59 118.71 51.59 118.71 51.59"/><polygon class="cls-21" points="32.89 147.21 25.06 148.38 25.2 173.04 33.02 171.87 32.89 147.21"/><polygon class="cls-2" points="32.89 147.16 25.06 148.32 25.06 148.38 32.89 147.22 32.89 147.16"/><polygon class="cls-21" points="43.7 145.6 35.87 146.77 36.01 171.37 43.84 170.2 43.7 145.6"/><polygon class="cls-2" points="43.7 145.48 35.87 146.65 35.87 146.77 43.7 145.6 43.7 145.48"/><polygon class="cls-21" points="54.51 143.99 46.68 145.16 46.82 169.7 54.64 168.53 54.51 143.99"/><polygon class="cls-2" points="54.51 143.81 46.68 144.98 46.68 145.16 54.51 143.99 54.51 143.81"/><polygon class="cls-21" points="65.32 142.38 57.49 143.54 57.63 168.03 65.45 166.86 65.32 142.38"/><polygon class="cls-2" points="65.32 142.14 57.49 143.31 57.49 143.54 65.32 142.38 65.32 142.14"/><polygon class="cls-21" points="76.13 140.76 68.3 141.93 68.44 166.35 76.26 165.19 76.13 140.76"/><polygon class="cls-2" points="76.13 140.47 68.3 141.63 68.3 141.93 76.13 140.76 76.13 140.47"/><polygon class="cls-21" points="86.94 139.15 79.11 140.32 79.24 164.68 87.07 163.51 86.94 139.15"/><polygon class="cls-2" points="86.93 138.79 79.11 139.96 79.11 140.32 86.94 139.15 86.93 138.79"/><polygon class="cls-21" points="97.75 137.66 89.92 138.83 90.06 163.42 97.88 162.26 97.75 137.66"/><polygon class="cls-2" points="97.88 162.26 90.06 163.42 90.06 163.55 97.88 162.38 97.88 162.26"/><polygon class="cls-21" points="108.56 135.99 100.73 137.16 100.87 161.81 108.69 160.65 108.56 135.99"/><polygon class="cls-2" points="108.69 160.64 100.87 161.81 100.87 161.88 108.69 160.71 108.69 160.64"/><polygon class="cls-21" points="119.17 134.34 111.54 135.48 111.68 160.2 119.31 159.06 119.17 134.34"/><polygon class="cls-22" points="119.18 134.34 119.17 134.34 119.31 159.06 119.31 159.06 119.31 159.06 119.31 159.06 119.5 159.03 119.37 134.4 119.18 134.34"/><polygon class="cls-2" points="119.31 159.06 119.31 159.06 111.68 160.2 111.67 160.2 119.31 159.06 119.31 159.06"/><polygon class="cls-23" points="119.18 134.34 119.36 134.4 119.36 134.32 119.18 134.34"/><polygon class="cls-21" points="119.31 159.06 119.31 159.06 119.31 159.06 119.31 159.06"/><polyline class="cls-25" points="202.44 187.79 119.32 161.21 119.47 188.08 120.89 188.53 202.44 188.53"/><polyline class="cls-3" points="25.36 188.53 116.42 188.53 119.47 188.08 119.32 161.21 25.21 175.25"/><line class="cls-26" x1="1.5" y1="188.53" x2="223.7" y2="188.53"/></svg>