<svg id="livetype" xmlns="http://www.w3.org/2000/svg" viewBox="0 0 366.88 174.61"><defs><style>.cls-1{fill:#213033;}.cls-2{fill:#4adea6;}</style></defs><title>heading</title><path class="cls-1" d="M-173.18-179.47v7.94h5.25v6.9h-5.25V-150a6.27,6.27,0,0,0,.17,1.57,2,2,0,0,0,.53,1,2,2,0,0,0,1,.52,6.74,6.74,0,0,0,1.54.15c.57,0,1,0,1.41-.05a10.6,10.6,0,0,0,1.06-.13v7.11a19.65,19.65,0,0,1-2.65.63,18.07,18.07,0,0,1-3,.22,15.41,15.41,0,0,1-4.26-.54,7.78,7.78,0,0,1-3.15-1.73,7.39,7.39,0,0,1-1.95-3,13.33,13.33,0,0,1-.66-4.45v-15.83h-4.07v-6.9h4.07v-7.94Z" transform="translate(209.22 184.92)"/><path class="cls-1" d="M-154.3-168.11a10.89,10.89,0,0,1,3.55-2.95,9.75,9.75,0,0,1,4.58-1.06,13.24,13.24,0,0,1,4.35.67,8.28,8.28,0,0,1,3.38,2.19,10.36,10.36,0,0,1,2.2,3.92,19.39,19.39,0,0,1,.78,5.9v19.81h-10V-159.5a7.84,7.84,0,0,0-.31-2.41,3.7,3.7,0,0,0-.9-1.53,3.21,3.21,0,0,0-1.43-.8,7.81,7.81,0,0,0-1.9-.22,6.18,6.18,0,0,0-2.7.52,3.92,3.92,0,0,0-1.63,1.43v22.88h-9.94v-45.29h9.94Z" transform="translate(209.22 184.92)"/><path class="cls-1" d="M-114.5-139a18.41,18.41,0,0,1-7-1.24,15,15,0,0,1-5.16-3.36,14.68,14.68,0,0,1-3.2-4.92,16.26,16.26,0,0,1-1.1-6v-1.12a21.33,21.33,0,0,1,1-6.5,14.53,14.53,0,0,1,2.89-5.24,13.6,13.6,0,0,1,4.8-3.48,16.63,16.63,0,0,1,6.71-1.26,16.08,16.08,0,0,1,6.09,1.09,12.44,12.44,0,0,1,4.57,3.12A13.74,13.74,0,0,1-102-163a19.9,19.9,0,0,1,1,6.48v4h-19.76a7.19,7.19,0,0,0,2.33,4.22,6.94,6.94,0,0,0,4.66,1.53,10.92,10.92,0,0,0,4-.76,8,8,0,0,0,3.37-2.54l4.54,5.37a11.36,11.36,0,0,1-2,2.06,13.42,13.42,0,0,1-2.78,1.79,17.39,17.39,0,0,1-3.57,1.26A17.58,17.58,0,0,1-114.5-139Zm-1.12-25.42a4.9,4.9,0,0,0-2.18.45,4.18,4.18,0,0,0-1.52,1.2,6.23,6.23,0,0,0-1,1.83,14.09,14.09,0,0,0-.53,2.3h10v-.76a4.92,4.92,0,0,0-1.21-3.7A4.8,4.8,0,0,0-115.62-164.46Z" transform="translate(209.22 184.92)"/><path class="cls-2" d="M-65.32-148.59a2.13,2.13,0,0,0-.28-1.09,2.75,2.75,0,0,0-1-.9,8.5,8.5,0,0,0-1.92-.81c-.8-.26-1.82-.52-3.06-.8a27,27,0,0,1-4.38-1.31,13.94,13.94,0,0,1-3.57-2,8.9,8.9,0,0,1-2.39-2.81,7.74,7.74,0,0,1-.87-3.72,8.86,8.86,0,0,1,.87-3.86,9.43,9.43,0,0,1,2.55-3.22,12.76,12.76,0,0,1,4.13-2.19,17.7,17.7,0,0,1,5.57-.81,20.49,20.49,0,0,1,5.81.76,13.73,13.73,0,0,1,4.41,2.14,9.55,9.55,0,0,1,2.79,3.27,9.09,9.09,0,0,1,1,4.21h-10a4,4,0,0,0-.91-2.83,4.08,4.08,0,0,0-3.13-1,4.76,4.76,0,0,0-1.43.22,3.9,3.9,0,0,0-1.16.62,3.07,3.07,0,0,0-.8,1,2.73,2.73,0,0,0-.29,1.24,2.44,2.44,0,0,0,1.25,2.12,11.62,11.62,0,0,0,4.06,1.36,38.83,38.83,0,0,1,4.64,1.13,15.26,15.26,0,0,1,3.94,1.86,8.89,8.89,0,0,1,2.72,2.91,8.31,8.31,0,0,1,1,4.27,8,8,0,0,1-1,3.92,9.37,9.37,0,0,1-2.79,3.12,14.33,14.33,0,0,1-4.38,2.06,20.55,20.55,0,0,1-5.78.75,17.53,17.53,0,0,1-6.09-1,14.18,14.18,0,0,1-4.42-2.52,10.68,10.68,0,0,1-2.7-3.48,8.93,8.93,0,0,1-.91-3.85h9.29A3.86,3.86,0,0,0-73-146.63a6.06,6.06,0,0,0,3.63,1,4.78,4.78,0,0,0,3-.83A2.64,2.64,0,0,0-65.32-148.59Z" transform="translate(209.22 184.92)"/><path class="cls-2" d="M-41.7-171.53l.32,3.74A11.33,11.33,0,0,1-37.53-171a11.39,11.39,0,0,1,5.26-1.15A10.28,10.28,0,0,1-27.34-171a7.39,7.39,0,0,1,3.24,3.67,11,11,0,0,1,3.86-3.54,11.45,11.45,0,0,1,5.52-1.26,12.26,12.26,0,0,1,4,.63,7.49,7.49,0,0,1,3.15,2.09,10,10,0,0,1,2.07,3.84,20,20,0,0,1,.73,5.85v20.08h-10v-20.08a8.82,8.82,0,0,0-.27-2.4,3.48,3.48,0,0,0-.75-1.45,2.55,2.55,0,0,0-1.21-.71,6.65,6.65,0,0,0-1.61-.19,4.73,4.73,0,0,0-2.62.7,5.09,5.09,0,0,0-1.77,1.93,3.64,3.64,0,0,1,0,.45v21.75h-10v-20a9.71,9.71,0,0,0-.25-2.45,3.38,3.38,0,0,0-.73-1.47,2.37,2.37,0,0,0-1.21-.71,6.8,6.8,0,0,0-1.64-.18,4.65,4.65,0,0,0-2.55.7,5.27,5.27,0,0,0-1.81,1.93v22.2H-51v-31.9Z" transform="translate(209.22 184.92)"/><path class="cls-2" d="M18.89-139.63a7.46,7.46,0,0,1-.54-1.31c-.15-.48-.28-1-.4-1.55A9.82,9.82,0,0,1,15-140a9.68,9.68,0,0,1-4.69,1,12,12,0,0,1-4.17-.71,10.81,10.81,0,0,1-3.43-2,9.16,9.16,0,0,1-2.35-3,8.71,8.71,0,0,1-.87-3.89A10.47,10.47,0,0,1,.36-153a8.37,8.37,0,0,1,2.74-3.28,13.45,13.45,0,0,1,4.66-2.07,27.27,27.27,0,0,1,6.68-.72h3.07v-1.68a5.21,5.21,0,0,0-.89-3.21,3.4,3.4,0,0,0-2.92-1.18,3.69,3.69,0,0,0-2.62.85,3.44,3.44,0,0,0-.91,2.63H.23a8.86,8.86,0,0,1,1-4.13A9.63,9.63,0,0,1,4-169.15a14.21,14.21,0,0,1,4.41-2.18,19.54,19.54,0,0,1,5.77-.79,19,19,0,0,1,5.29.7,12.08,12.08,0,0,1,4.2,2.14,10,10,0,0,1,2.77,3.57,11.58,11.58,0,0,1,1,5v13.06c0,1,0,2,.09,2.71a16.3,16.3,0,0,0,.27,2,10.39,10.39,0,0,0,.43,1.55,8.16,8.16,0,0,0,.57,1.27v.5Zm-6.22-6.49a5.53,5.53,0,0,0,3.08-.79,5,5,0,0,0,1.76-1.8v-5.1H14.38a6.44,6.44,0,0,0-2.34.38,4.13,4.13,0,0,0-1.54,1,4,4,0,0,0-.82,1.49,6,6,0,0,0-.25,1.76,2.83,2.83,0,0,0,.91,2.19A3.32,3.32,0,0,0,12.67-146.12Z" transform="translate(209.22 184.92)"/><path class="cls-2" d="M52.27-162.54l-.72-.07-.88-.08-.9-.06-.77,0a8.68,8.68,0,0,0-3.86.73A4.45,4.45,0,0,0,43-159.83v20.2H33.05v-31.9h9.32l.32,4.09a9.82,9.82,0,0,1,2.93-3.45,6.91,6.91,0,0,1,4.06-1.23,14.13,14.13,0,0,1,1.46.08,7.75,7.75,0,0,1,1.31.27Z" transform="translate(209.22 184.92)"/><path class="cls-2" d="M67.43-179.47v7.94h5.25v6.9H67.43V-150a6.32,6.32,0,0,0,.16,1.57,2.15,2.15,0,0,0,.53,1,2,2,0,0,0,1,.52,6.64,6.64,0,0,0,1.53.15c.57,0,1,0,1.42-.05s.73-.07,1.06-.13v7.11a19.65,19.65,0,0,1-2.65.63,18.15,18.15,0,0,1-3,.22,15.41,15.41,0,0,1-4.26-.54,7.88,7.88,0,0,1-3.16-1.73,7.48,7.48,0,0,1-1.94-3,13.07,13.07,0,0,1-.67-4.45v-15.83H53.42v-6.9h4.07v-7.94Z" transform="translate(209.22 184.92)"/><path class="cls-2" d="M92-139a18.41,18.41,0,0,1-7-1.24,15,15,0,0,1-5.16-3.36,14.68,14.68,0,0,1-3.2-4.92,16.26,16.26,0,0,1-1.1-6v-1.12a21.33,21.33,0,0,1,1-6.5,14.53,14.53,0,0,1,2.89-5.24,13.6,13.6,0,0,1,4.8-3.48A16.63,16.63,0,0,1,91-172.12,16.08,16.08,0,0,1,97.05-171a12.44,12.44,0,0,1,4.57,3.12,13.74,13.74,0,0,1,2.86,4.93,19.9,19.9,0,0,1,1,6.48v4H85.71A7.19,7.19,0,0,0,88-148.24a6.94,6.94,0,0,0,4.66,1.53,10.92,10.92,0,0,0,4-.76,8,8,0,0,0,3.37-2.54l4.54,5.37a11.36,11.36,0,0,1-2,2.06,13.42,13.42,0,0,1-2.78,1.79,17.39,17.39,0,0,1-3.57,1.26A17.58,17.58,0,0,1,92-139ZM90.9-164.46a4.9,4.9,0,0,0-2.18.45,4.18,4.18,0,0,0-1.52,1.2,6.23,6.23,0,0,0-1,1.83,14.09,14.09,0,0,0-.53,2.3h10v-.76a4.92,4.92,0,0,0-1.21-3.7A4.81,4.81,0,0,0,90.9-164.46Z" transform="translate(209.22 184.92)"/><path class="cls-2" d="M126.17-148.59a2,2,0,0,0-.28-1.09,2.75,2.75,0,0,0-1-.9,8.5,8.5,0,0,0-1.92-.81c-.8-.26-1.82-.52-3.06-.8a27.29,27.29,0,0,1-4.38-1.31,13.94,13.94,0,0,1-3.57-2,8.9,8.9,0,0,1-2.39-2.81,7.74,7.74,0,0,1-.87-3.72,8.86,8.86,0,0,1,.87-3.86,9.43,9.43,0,0,1,2.55-3.22,12.76,12.76,0,0,1,4.13-2.19,17.7,17.7,0,0,1,5.57-.81,20.49,20.49,0,0,1,5.81.76,13.73,13.73,0,0,1,4.41,2.14,9.55,9.55,0,0,1,2.79,3.27,9.09,9.09,0,0,1,1,4.21h-10a4,4,0,0,0-.91-2.83,4.08,4.08,0,0,0-3.13-1,4.64,4.64,0,0,0-1.42.22,3.84,3.84,0,0,0-1.17.62,3.21,3.21,0,0,0-.8,1,2.73,2.73,0,0,0-.29,1.24,2.46,2.46,0,0,0,1.25,2.12,11.62,11.62,0,0,0,4.06,1.36,38.83,38.83,0,0,1,4.64,1.13,15.26,15.26,0,0,1,3.94,1.86,9,9,0,0,1,2.73,2.91,8.41,8.41,0,0,1,1,4.27,8,8,0,0,1-1,3.92,9.37,9.37,0,0,1-2.79,3.12,14.33,14.33,0,0,1-4.38,2.06,20.55,20.55,0,0,1-5.78.75,17.43,17.43,0,0,1-6.08-1,14.23,14.23,0,0,1-4.43-2.52,10.68,10.68,0,0,1-2.7-3.48,8.93,8.93,0,0,1-.91-3.85H117a3.86,3.86,0,0,0,1.47,3.23,6.06,6.06,0,0,0,3.63,1,4.76,4.76,0,0,0,3.05-.83A2.64,2.64,0,0,0,126.17-148.59Z" transform="translate(209.22 184.92)"/><path class="cls-2" d="M152-179.47v7.94h5.25v6.9H152V-150a6.32,6.32,0,0,0,.16,1.57,2.15,2.15,0,0,0,.53,1,2,2,0,0,0,1,.52,6.64,6.64,0,0,0,1.53.15c.57,0,1,0,1.42-.05s.73-.07,1.06-.13v7.11a19.65,19.65,0,0,1-2.65.63,18.15,18.15,0,0,1-2.95.22,15.41,15.41,0,0,1-4.26-.54,7.88,7.88,0,0,1-3.16-1.73,7.48,7.48,0,0,1-1.94-3,13.07,13.07,0,0,1-.67-4.45v-15.83H138v-6.9H142v-7.94Z" transform="translate(209.22 184.92)"/><path class="cls-1" d="M-179.53-92.63l3.22-18.82h9.52l-7.52,31.91h-8.4L-188-98.47l-5.31,18.93h-8.4l-7.52-31.91h9.52l3.16,19.26,5.07-19.26h6.93Z" transform="translate(209.22 184.92)"/><path class="cls-1" d="M-145.26-79.54a6.78,6.78,0,0,1-.55-1.31c-.15-.48-.28-1-.4-1.55a9.7,9.7,0,0,1-3,2.45,9.78,9.78,0,0,1-4.68,1,12.27,12.27,0,0,1-4.18-.71,10.92,10.92,0,0,1-3.43-2,9.16,9.16,0,0,1-2.35-3,8.71,8.71,0,0,1-.87-3.89,10.43,10.43,0,0,1,.9-4.43A8.42,8.42,0,0,1-161-96.25a13.58,13.58,0,0,1,4.65-2.06,27.27,27.27,0,0,1,6.68-.72h3.07v-1.68a5.26,5.26,0,0,0-.88-3.22,3.44,3.44,0,0,0-2.92-1.18,3.72,3.72,0,0,0-2.63.86,3.42,3.42,0,0,0-.91,2.62h-9.94a8.89,8.89,0,0,1,1-4.13,9.8,9.8,0,0,1,2.81-3.3,14.21,14.21,0,0,1,4.41-2.18,19.53,19.53,0,0,1,5.77-.8,19,19,0,0,1,5.29.71,11.91,11.91,0,0,1,4.2,2.14,9.78,9.78,0,0,1,2.77,3.57,11.54,11.54,0,0,1,1,5v13.06c0,1,0,2,.09,2.71a14.71,14.71,0,0,0,.26,2,10.39,10.39,0,0,0,.43,1.55,9.78,9.78,0,0,0,.57,1.27v.5ZM-151.49-86a5.58,5.58,0,0,0,3.09-.79,5,5,0,0,0,1.75-1.8v-5.1h-3.13a6.24,6.24,0,0,0-2.34.38,3.9,3.9,0,0,0-1.53,1,3.84,3.84,0,0,0-.83,1.49,6,6,0,0,0-.25,1.75,2.84,2.84,0,0,0,.91,2.2A3.32,3.32,0,0,0-151.49-86Z" transform="translate(209.22 184.92)"/><path class="cls-1" d="M-118.85-93.46l5.3-18h10.65l-12.8,36.66a23.83,23.83,0,0,1-1.09,2.62,10.12,10.12,0,0,1-1.87,2.64,9.86,9.86,0,0,1-3,2,11.14,11.14,0,0,1-4.57.83c-.5,0-.9,0-1.23,0a7.91,7.91,0,0,1-.9-.11l-.87-.17-1.1-.28v-7.11h1.26a9.59,9.59,0,0,0,2-.18,4.29,4.29,0,0,0,1.39-.53,2.88,2.88,0,0,0,.9-.87,5.72,5.72,0,0,0,.57-1.19l.8-2.13-11.09-32.2h10.61Z" transform="translate(209.22 184.92)"/><path class="cls-1" d="M-73.71-119.38v7.93h5.25v6.9h-5.25v14.6a6.68,6.68,0,0,0,.16,1.56,2.14,2.14,0,0,0,.53,1,2,2,0,0,0,1,.52,6.79,6.79,0,0,0,1.54.14c.57,0,1,0,1.41,0s.73-.07,1.06-.13v7.1a18.27,18.27,0,0,1-2.65.64,18.15,18.15,0,0,1-3,.22,15,15,0,0,1-4.26-.55A7.87,7.87,0,0,1-81-81.22a7.48,7.48,0,0,1-1.94-3,13.32,13.32,0,0,1-.67-4.45v-15.84h-4.06v-6.9h4.06v-7.93Z" transform="translate(209.22 184.92)"/><path class="cls-1" d="M-66.65-95.79a20.11,20.11,0,0,1,1-6.46,14.77,14.77,0,0,1,3-5.16,13.42,13.42,0,0,1,4.82-3.4A16.66,16.66,0,0,1-51.29-112a16.79,16.79,0,0,1,6.65,1.23,13.25,13.25,0,0,1,4.82,3.4,14.77,14.77,0,0,1,3,5.16,20.11,20.11,0,0,1,1,6.46v.62a20.56,20.56,0,0,1-1,6.47,14.3,14.3,0,0,1-2.94,5.13,13.37,13.37,0,0,1-4.82,3.4,16.88,16.88,0,0,1-6.62,1.22,16.88,16.88,0,0,1-6.62-1.22,13.5,13.5,0,0,1-4.83-3.4,14.36,14.36,0,0,1-3-5.13,20,20,0,0,1-1-6.47Zm9.94.62a20.87,20.87,0,0,0,.25,3.36,8.29,8.29,0,0,0,.88,2.72,4.86,4.86,0,0,0,1.7,1.81,4.94,4.94,0,0,0,2.65.66,4.82,4.82,0,0,0,2.61-.66,4.86,4.86,0,0,0,1.67-1.81,9.06,9.06,0,0,0,.88-2.72,19.72,19.72,0,0,0,.27-3.36v-.62a21.67,21.67,0,0,0-.25-3.3,8.68,8.68,0,0,0-.89-2.73,5.22,5.22,0,0,0-1.69-1.86,4.8,4.8,0,0,0-2.66-.69,4.65,4.65,0,0,0-2.61.69,5.06,5.06,0,0,0-1.66,1.86,8.94,8.94,0,0,0-.89,2.73,20.44,20.44,0,0,0-.26,3.3Z" transform="translate(209.22 184.92)"/><path class="cls-1" d="M11.26-95.23a27.71,27.71,0,0,1-.74,6.62,14.69,14.69,0,0,1-2.27,5.13,10.53,10.53,0,0,1-3.87,3.33,11.88,11.88,0,0,1-5.51,1.2,9.47,9.47,0,0,1-4.53-1A10.37,10.37,0,0,1-9-82.81l-.42,3.27h-8.9v-45.29h9.94v16a9.35,9.35,0,0,1,3.09-2.33A9.54,9.54,0,0,1-1.19-112a12.06,12.06,0,0,1,5.56,1.21,10.7,10.7,0,0,1,3.88,3.38,15,15,0,0,1,2.27,5.13,26.85,26.85,0,0,1,.74,6.47Zm-10-.62a28.26,28.26,0,0,0-.19-3.28,9.16,9.16,0,0,0-.74-2.72,4.52,4.52,0,0,0-1.52-1.84,4.35,4.35,0,0,0-2.53-.68,5.75,5.75,0,0,0-2.91.66,4.44,4.44,0,0,0-1.75,1.91v12.68A4.31,4.31,0,0,0-6.6-87.24a5.87,5.87,0,0,0,3,.65A4.72,4.72,0,0,0-1-87.22,4.06,4.06,0,0,0,.45-89a8.94,8.94,0,0,0,.68-2.73c.1-1.06.16-2.23.16-3.51Z" transform="translate(209.22 184.92)"/><path class="cls-1" d="M34.64-83A10.53,10.53,0,0,1,31-80a10.76,10.76,0,0,1-4.89,1.06,13.41,13.41,0,0,1-4.32-.66,8.37,8.37,0,0,1-3.36-2.1,9.62,9.62,0,0,1-2.19-3.68,16.66,16.66,0,0,1-.78-5.41v-20.65h9.94v20.7a4.23,4.23,0,0,0,1,3.13,4,4,0,0,0,3,1,6.07,6.07,0,0,0,3-.65,4.84,4.84,0,0,0,1.85-1.8v-22.38h10v31.91H34.93Z" transform="translate(209.22 184.92)"/><path class="cls-1" d="M62.45-93.46l5.3-18H78.4L65.6-74.79a23.83,23.83,0,0,1-1.09,2.62,10.12,10.12,0,0,1-1.87,2.64,9.79,9.79,0,0,1-3,2,11.08,11.08,0,0,1-4.57.83c-.49,0-.89,0-1.22,0a7.91,7.91,0,0,1-.9-.11L52.05-67,51-67.24v-7.11h1.26a9.59,9.59,0,0,0,2-.18,4.14,4.14,0,0,0,1.38-.53,2.68,2.68,0,0,0,.9-.87,5.27,5.27,0,0,0,.58-1.19l.8-2.13-11.09-32.2H57.4Z" transform="translate(209.22 184.92)"/><path class="cls-1" d="M-56.39-38.91a24.88,24.88,0,0,1-.8,6.45,15.71,15.71,0,0,1-2.37,5.18,11.43,11.43,0,0,1-3.89,3.44,11.21,11.21,0,0,1-5.33,1.23,9.4,9.4,0,0,1-4.13-.85A9.83,9.83,0,0,1-76-25.82v14.89h-9.94V-55.1h9.29l.3,3a9.68,9.68,0,0,1,3.18-2.61,9.44,9.44,0,0,1,4.33-.93,11.92,11.92,0,0,1,5.37,1.16,10.83,10.83,0,0,1,3.89,3.29,15.41,15.41,0,0,1,2.38,5.1,25.2,25.2,0,0,1,.81,6.61Zm-9.94-.62a21.23,21.23,0,0,0-.26-3.42,9.25,9.25,0,0,0-.85-2.69A4.51,4.51,0,0,0-69-47.39,4.12,4.12,0,0,0-71.28-48a6.19,6.19,0,0,0-3,.63A4,4,0,0,0-76-45.49v12.56a4.5,4.5,0,0,0,1.77,2,5.68,5.68,0,0,0,3,.7,3.88,3.88,0,0,0,2.34-.68,4.91,4.91,0,0,0,1.5-1.84,8.89,8.89,0,0,0,.81-2.75,22.36,22.36,0,0,0,.24-3.37Z" transform="translate(209.22 184.92)"/><path class="cls-1" d="M-32.71-46.11l-.73-.07-.88-.08-.9-.05-.77,0a8.83,8.83,0,0,0-3.86.72A4.41,4.41,0,0,0-42-43.39V-23.2h-9.94V-55.1h9.32l.32,4.1a9.67,9.67,0,0,1,2.94-3.45,6.82,6.82,0,0,1,4-1.24,11.8,11.8,0,0,1,1.46.09,7.79,7.79,0,0,1,1.31.26Z" transform="translate(209.22 184.92)"/><path class="cls-1" d="M-31.41-39.44a20.07,20.07,0,0,1,1-6.46,14.6,14.6,0,0,1,2.95-5.16,13.36,13.36,0,0,1,4.82-3.41A16.84,16.84,0,0,1-16-55.69,17,17,0,0,1-9.4-54.47a13.36,13.36,0,0,1,4.82,3.41,14.6,14.6,0,0,1,3,5.16,20.07,20.07,0,0,1,1,6.46v.62a20.6,20.6,0,0,1-1,6.47,14.47,14.47,0,0,1-2.94,5.13,13.56,13.56,0,0,1-4.82,3.39A16.71,16.71,0,0,1-16-22.61a16.71,16.71,0,0,1-6.62-1.22,13.6,13.6,0,0,1-4.83-3.39,14.53,14.53,0,0,1-3-5.13,20,20,0,0,1-1-6.47Zm9.94.62a21,21,0,0,0,.25,3.36,8.23,8.23,0,0,0,.88,2.71,4.78,4.78,0,0,0,1.7,1.81,4.83,4.83,0,0,0,2.65.67,4.73,4.73,0,0,0,2.61-.67,4.79,4.79,0,0,0,1.67-1.81,9,9,0,0,0,.88-2.71,19.8,19.8,0,0,0,.27-3.36v-.62a21.91,21.91,0,0,0-.25-3.31,8.53,8.53,0,0,0-.89-2.72,5.06,5.06,0,0,0-1.69-1.86A4.8,4.8,0,0,0-16-48a4.65,4.65,0,0,0-2.61.69,4.9,4.9,0,0,0-1.66,1.86,8.79,8.79,0,0,0-.89,2.72,19.57,19.57,0,0,0-.26,3.31Z" transform="translate(209.22 184.92)"/><path class="cls-1" d="M33.37-38.91a24.89,24.89,0,0,1-.79,6.45,15.72,15.72,0,0,1-2.38,5.18,11.43,11.43,0,0,1-3.89,3.44A11.17,11.17,0,0,1,21-22.61a9.4,9.4,0,0,1-4.13-.85,9.87,9.87,0,0,1-3.1-2.36v14.89H3.83V-55.1h9.29l.29,3a9.78,9.78,0,0,1,3.18-2.61,9.48,9.48,0,0,1,4.34-.93,12,12,0,0,1,5.37,1.16,10.83,10.83,0,0,1,3.89,3.29,15.4,15.4,0,0,1,2.37,5.1,25.2,25.2,0,0,1,.81,6.61Zm-9.93-.62a20.1,20.1,0,0,0-.27-3.42,9.57,9.57,0,0,0-.84-2.69,4.51,4.51,0,0,0-1.53-1.75A4.13,4.13,0,0,0,18.48-48a6.19,6.19,0,0,0-3,.63,4.13,4.13,0,0,0-1.74,1.9v12.56a4.62,4.62,0,0,0,1.77,2,5.71,5.71,0,0,0,3,.7,3.91,3.91,0,0,0,2.35-.68,5,5,0,0,0,1.5-1.84,9.47,9.47,0,0,0,.81-2.75,22.36,22.36,0,0,0,.24-3.37Z" transform="translate(209.22 184.92)"/><path class="cls-1" d="M53.19-22.61a18.54,18.54,0,0,1-7-1.23,15,15,0,0,1-5.16-3.37,14.43,14.43,0,0,1-3.2-4.92,16,16,0,0,1-1.11-6v-1.12a21.37,21.37,0,0,1,1-6.5,14.49,14.49,0,0,1,2.89-5.23,13.4,13.4,0,0,1,4.81-3.48,16.43,16.43,0,0,1,6.71-1.27,16.08,16.08,0,0,1,6.09,1.09,12.47,12.47,0,0,1,4.57,3.13,13.61,13.61,0,0,1,2.86,4.92,20.24,20.24,0,0,1,1,6.49v4H46.88a7.11,7.11,0,0,0,2.33,4.21,6.89,6.89,0,0,0,4.66,1.54,10.92,10.92,0,0,0,4-.77,8.06,8.06,0,0,0,3.38-2.54l4.54,5.37a11.4,11.4,0,0,1-2,2.07A14.19,14.19,0,0,1,61-24.36a18,18,0,0,1-3.57,1.27A18,18,0,0,1,53.19-22.61ZM52.07-48a4.87,4.87,0,0,0-2.18.44,4.21,4.21,0,0,0-1.52,1.21,5.94,5.94,0,0,0-1,1.82,13,13,0,0,0-.53,2.31h10V-43a4.9,4.9,0,0,0-1.21-3.7A4.77,4.77,0,0,0,52.07-48Z" transform="translate(209.22 184.92)"/><path class="cls-1" d="M89.93-46.11l-.72-.07-.89-.08-.9-.05-.76,0a8.88,8.88,0,0,0-3.87.72,4.41,4.41,0,0,0-2.15,2.23V-23.2H70.7V-55.1H80l.33,4.1a9.55,9.55,0,0,1,2.93-3.45,6.82,6.82,0,0,1,4-1.24,11.68,11.68,0,0,1,1.46.09,7.91,7.91,0,0,1,1.32.26Z" transform="translate(209.22 184.92)"/><path class="cls-1" d="M106.54-63v7.93h5.25v6.9h-5.25v14.59A6.32,6.32,0,0,0,106.7-32a2.15,2.15,0,0,0,.53,1,2,2,0,0,0,1,.51,6.58,6.58,0,0,0,1.53.15c.57,0,1,0,1.42-.05a8.77,8.77,0,0,0,1.06-.13v7.11a18.38,18.38,0,0,1-2.66.63,18,18,0,0,1-2.95.22,15.41,15.41,0,0,1-4.26-.54,7.84,7.84,0,0,1-3.15-1.73,7.46,7.46,0,0,1-1.95-3,13.4,13.4,0,0,1-.66-4.46V-48.2H92.53v-6.9H96.6V-63Z" transform="translate(209.22 184.92)"/><path class="cls-1" d="M128.45-37.11l5.3-18H144.4L131.6-18.45a23.93,23.93,0,0,1-1.09,2.63,10.12,10.12,0,0,1-1.87,2.64,10,10,0,0,1-3,2,11.08,11.08,0,0,1-4.57.83c-.49,0-.9,0-1.22,0a8,8,0,0,1-.9-.1l-.87-.18c-.3-.07-.67-.16-1.1-.28V-18h1.26a10.39,10.39,0,0,0,2-.17,4.37,4.37,0,0,0,1.38-.53,2.88,2.88,0,0,0,.9-.87,5.57,5.57,0,0,0,.58-1.2l.8-2.12L112.79-55.1H123.4Z" transform="translate(209.22 184.92)"/><path class="cls-1" d="M142.75-27.86a4.82,4.82,0,0,1,.4-2,4.55,4.55,0,0,1,1.12-1.58A5.51,5.51,0,0,1,146-32.46a6.38,6.38,0,0,1,2.24-.38,6.4,6.4,0,0,1,2.23.38,5.39,5.39,0,0,1,1.74,1.05,4.55,4.55,0,0,1,1.12,1.58,4.82,4.82,0,0,1,.4,2,4.83,4.83,0,0,1-.4,2,4.55,4.55,0,0,1-1.12,1.58,5.2,5.2,0,0,1-1.74,1,6.18,6.18,0,0,1-2.23.39,6.16,6.16,0,0,1-2.24-.39,5.31,5.31,0,0,1-1.72-1,4.55,4.55,0,0,1-1.12-1.58A4.83,4.83,0,0,1,142.75-27.86Z" transform="translate(209.22 184.92)"/></svg>