<svg id="Layer_1" data-name="Layer 1" xmlns="http://www.w3.org/2000/svg" xmlns:xlink="http://www.w3.org/1999/xlink" viewBox="0 0 502.63 681.42"><defs><style>.cls-1,.cls-8{fill:none;}.cls-1,.cls-10{stroke:#4defb1;}.cls-1,.cls-10,.cls-8{stroke-miterlimit:10;}.cls-2{opacity:0.13;fill:url(#linear-gradient);}.cls-3{fill:#ebf0f5;}.cls-4{fill:#c1c4c6;}.cls-5{fill:#45bfb0;}.cls-6{fill:url(#linear-gradient-2);}.cls-7{fill:#201d1e;}.cls-8{stroke:#201d1e;}.cls-9{fill:url(#linear-gradient-3);}.cls-10{fill:#fff;}.cls-11{fill:#ced2d6;}.cls-12{fill:#4defb1;}</style><linearGradient id="linear-gradient" x1="171.62" y1="515.65" x2="596.57" y2="515.65" gradientUnits="userSpaceOnUse"><stop offset="0" stop-color="#4defb1"/><stop offset="1" stop-color="#45bfb0"/></linearGradient><linearGradient id="linear-gradient-2" x1="8151.01" y1="690.19" x2="8194.03" y2="690.19" gradientTransform="matrix(-1, 0, 0, 1, 8524.3, 0)" xlink:href="#linear-gradient"/><linearGradient id="linear-gradient-3" x1="223.03" y1="726.43" x2="339.53" y2="726.43" gradientTransform="matrix(-1, 0, 0, 1, 518.04, 0)" xlink:href="#linear-gradient"/></defs><title>person4</title><path class="cls-1" d="M271,235.8c-5,1.87-52.44,20.6-65,69.43-10.83,42.22-35.54,49.53-12,150.06,14.41,61.63-10.46,67.9-29.61,93.56-21.51,28.83,26.07,57.4,0,86.17S135.86,749.37,166,784.73c48.88,57.33,135.87-73.08,271.53-28.21,39.05,12.92,58.82,32.65,93.28,21.7,44.28-14.07,92.77-72.41,93.29-134.52.78-92.43-105.16-130.88-96.62-217,4.74-47.69,39.42-57.75,35-99.8-4.85-46.09-51.51-81.42-90-91.13s-43.15,12.5-99.95,10.85C316.31,245,305.57,222.8,271,235.8Z" transform="translate(-143.59 -231.24)"/><path class="cls-2" d="M283.93,267.9c-4.4,1.65-46.42,18.23-57.52,61.47-9.59,37.37-31.46,43.85-10.65,132.84,12.76,54.56-9.26,60.11-26.21,82.84-19.05,25.52,23.08,50.81,0,76.28S164.34,722.56,191,753.86c43.27,50.76,120.28-64.69,240.38-25C466,740.33,483.47,757.8,514,748.1c39.2-12.46,82.12-64.1,82.58-119.09.69-81.82-93.1-115.86-85.53-192.08,4.19-42.22,34.89-51.13,31-88.36-4.3-40.8-45.61-72.07-79.64-80.67s-38.2,11.07-88.48,9.61C324.09,276.06,314.58,256.39,283.93,267.9Z" transform="translate(-143.59 -231.24)"/><ellipse class="cls-3" cx="226.7" cy="565.54" rx="72.55" ry="7"/><path class="cls-4" d="M474.36,476.46s-48.85,55.33-51.92,55.68-27.67-11.28-27.67-11.28l-8.19,15S417,552,421.76,549.56s11.95-9.23,19.47-19.47S461,500,461,500a16.31,16.31,0,0,0,9.56-4.44c4.1-4.1,1-9.56,1.37-10.59s3.43-7,3.43-7Z" transform="translate(-143.59 -231.24)"/><path class="cls-4" d="M373.29,508.37s-8.38-1.93-11.06-4.83-2.36-14.15-2.36-14.15,6.65,0,6.7-4.5-4.34-19.3-4.34-19.3-4.29-13.83-13.94-11.26-9.65,3.22-11.58,5.79-4.18,9.65-2.25,13.83,6.75,7.08,7.4,10.62,1.6,17.68,0,19.61-8.14,8.95-8.14,8.95,5.24,9.71,15.85,7.78,20.67-.32,22.2-6.43Z" transform="translate(-143.59 -231.24)"/><path class="cls-4" d="M416.74,797s-12.3-4.1-15-7.29-4.55-4.56-4.1-10,.82-8.87.82-8.87H382.69v22s-1.21,5.25,3,5.45,7.07-1,11.91-1,13.11,1,13.11,1h5S417.56,797.3,416.74,797Z" transform="translate(-143.59 -231.24)"/><path class="cls-4" d="M358.14,799s-10.51-5.53-12.55-9-3.49-5.06-2.36-10.43,1.9-8.69,1.9-8.69L331,769l-2.89,21.8s-1.77,5.06,2,5.76,6.47-.15,10.82.42a116.24,116.24,0,0,1,11.65,2.59l4.52.6S358.84,799.41,358.14,799Z" transform="translate(-143.59 -231.24)"/><path class="cls-5" d="M399.57,778.73l-16.09-1.48a4.13,4.13,0,0,1-3.76-4.39,80.81,80.81,0,0,0-.4-15c-1.29-10.51-5.85-25-6-36.46s-5.44-47.29-6.1-50.57-15-47.62-15.54-50.9c-.37-2.25,1-9.12,2-13.24a4.14,4.14,0,0,1,4.05-3.23h29.51a4.15,4.15,0,0,1,3.95,2.87c2.67,8.31,10.19,33,11.53,52.68,1.64,24,.33,69.29.33,78.16s-.34,18.46,0,20.35c.21,1.29.78,10.84,1.12,16.8A4.15,4.15,0,0,1,399.57,778.73Z" transform="translate(-143.59 -231.24)"/><path class="cls-6" d="M373.29,605.49s-.73,68.8-5.79,92.33S355.19,740.91,352.65,750s-4,25.34-2.9,26.43c.87.87-12.28.35-17.58.1a2,2,0,0,1-1.89-2.22,270.52,270.52,0,0,0,2.1-28.66c0-13,2.53-40.55,4-49.24s.57-13.41-.18-19.54-3.13-61.33-1.2-66.47a20.44,20.44,0,0,1,3.4-6.18,2,2,0,0,1,1.51-.68h31.4a2,2,0,0,1,2,2Z" transform="translate(-143.59 -231.24)"/><path class="cls-3" d="M386.7,598.17l-42.93,2.3a3.36,3.36,0,0,1-3.53-3.61c.87-11.37,3.43-44.35,3.93-45.35s-9.43,4-14.65,6.57a3.36,3.36,0,0,1-4.58-1.68c-2.48-5.77-7.31-17.69-7.31-23.29,0-7.54,2.46-15.38,12.39-21.41l2.56-1.51a3.35,3.35,0,0,1,4.2.63c1.48,1.66,3.83,3.72,6.49,3.9,4.52.3,16.28.3,20.51-1.81a16.65,16.65,0,0,0,5.6-5.15,3.33,3.33,0,0,1,3.88-1.18,100.6,100.6,0,0,1,11,4.82c4.19,2.2,9.45,5.33,12.52,7.18a3.36,3.36,0,0,1,1.32,4.27l-7.28,15.92a3.36,3.36,0,0,1-3.8,1.88h0a3.35,3.35,0,0,0-4.1,3.18c-.18,6.74-.37,19.83.73,23.36s4.56,19.53,6.13,26.93A3.36,3.36,0,0,1,386.7,598.17Z" transform="translate(-143.59 -231.24)"/><path class="cls-7" d="M413.25,510.05s-11.94-1.16-12.69,0-10.15,26.84-10.15,26.84-1.49,6.12,0,6.87,9.55.75,9.55.75l13.89-31.38S415,510.21,413.25,510.05Z" transform="translate(-143.59 -231.24)"/><path class="cls-7" d="M375.61,458.2s-9.95-4.61-12.35-7.37-5.72-9.41-15.49-7.75-16.78,6.82-17.7,12.17-1.29,14,0,16.78,7.75,9,8.48,9.77,2.4-2.21,1.48-3.87-3.14-6.64-2-6.45,6.08,3.68,7,3.5,2.76-6.27,1.29-9.59,6.56-1.3,11.24-.55,12.72-.55,14.75-1.29S377.53,459.12,375.61,458.2Z" transform="translate(-143.59 -231.24)"/><path class="cls-4" d="M341.51,546.45s8.09,26.56,10.08,27.77,8.43-2.41,15.68-8.05,16.32-9.72,16.86-13,3.79-12,4.73-13.27,4.83-.77,4.83-.77l3.75-6.46s1.2-.95,1.62,0,4.15,4.5,4.15,4.5-4.15,9.81-5.51,11.45-8.46,10.64-8.46,10.64-21.57,24.84-24.57,26.48-12.29,8.19-15.56,7.37-10.65-5.18-15-16.92-8.74-26.39-8.74-26.39Z" transform="translate(-143.59 -231.24)"/><rect class="cls-7" x="230.88" y="568.15" width="71.92" height="8.14" rx="4.07" ry="4.07"/><path class="cls-8" d="M431.39,912.16h-84.7a12,12,0,0,1-12-12l40-84.7c4.18-8.39,5.4-12,12-12h44.7a12,12,0,0,1,12,12v84.7A12,12,0,0,1,431.39,912.16Z" transform="translate(-143.59 -231.24)"/><line class="cls-8" x1="216.06" y1="616.06" x2="299.8" y2="616.06"/><ellipse class="cls-3" cx="99.68" cy="619.64" rx="58.96" ry="4.29"/><rect class="cls-7" x="183.51" y="815.8" width="75.99" height="2.35" rx="1.18" ry="1.18" transform="translate(-759.26 460.65) rotate(-66.33)"/><polyline class="cls-7" points="62.05 618.98 89.27 551.49 96.43 551.49 64.21 619.93"/><rect class="cls-7" x="231.07" y="815.8" width="75.99" height="2.35" rx="1.18" ry="1.18" transform="translate(-514.76 1160.13) rotate(-113.67)"/><polyline class="cls-7" points="141.33 618.98 114.11 551.49 106.96 551.49 139.18 619.93"/><line class="cls-8" x1="118.11" y1="569.15" x2="79.24" y2="585.62"/><line class="cls-8" x1="86.24" y1="569.15" x2="125.11" y2="585.62"/><path class="cls-9" d="M294.42,779.43c-2,10.11-20.37,7.51-49.17,5.21-23.37-1.87-35.05-2.8-40.5-7.81-13.4-12.32-.67-27.66-11.57-63.06-7.25-23.55-19-36.67-13-44,3.07-3.74,10-4.52,15.62-2.9,25.71,7.4,23.38,43,28.69,76.39.59,3.71,11.09,17.92,28.58,18.78,18.92.92,28.28.47,34.89,3.24C292.94,767.41,296.46,769.26,294.42,779.43Z" transform="translate(-143.59 -231.24)"/><rect class="cls-10" x="283.1" y="190.58" width="30.27" height="30.27"/><rect class="cls-10" x="471.86" y="134.88" width="30.27" height="30.27"/><rect class="cls-10" x="547.39" y="413.25" width="30.27" height="30.27" transform="translate(-192.49 -157.97) rotate(-7.14)"/><rect class="cls-11" x="389.86" y="130.88" width="30.27" height="30.27"/><rect class="cls-12" x="497.8" y="434.05" width="30.27" height="30.27" transform="translate(-86.59 -289) rotate(6.82)"/><rect class="cls-5" x="388.66" y="129.58" width="30.27" height="30.27"/></svg>