<svg id="Layer_1" data-name="Layer 1" xmlns="http://www.w3.org/2000/svg" xmlns:xlink="http://www.w3.org/1999/xlink" viewBox="0 0 491.63 535.89"><defs><style>.cls-1{fill:#ebf0f5;}.cls-2{fill:#c1c4c6;}.cls-3{fill:#45bfb0;}.cls-4,.cls-5,.cls-6,.cls-7{fill:none;stroke-miterlimit:10;stroke-width:5px;}.cls-4{stroke:#45bfb0;}.cls-4,.cls-6{stroke-linecap:round;}.cls-5{stroke:#2fe6a6;}.cls-6,.cls-7{stroke:#e6e7e8;}.cls-8{fill:url(#linear-gradient);}.cls-9{fill:#201d1e;}.cls-10{fill:url(#linear-gradient-2);}.cls-11{fill:#fff;}</style><linearGradient id="linear-gradient" x1="8273.03" y1="749.49" x2="8316.05" y2="749.49" gradientTransform="matrix(-1, 0, 0, 1, 8524.3, 0)" gradientUnits="userSpaceOnUse"><stop offset="0" stop-color="#4defb1"/><stop offset="1" stop-color="#45bfb0"/></linearGradient><linearGradient id="linear-gradient-2" x1="588.54" y1="747.07" x2="618.4" y2="747.07" gradientTransform="matrix(1, 0, 0, 1, 0, 0)" xlink:href="#linear-gradient"/></defs><title>person2</title><ellipse class="cls-1" cx="72.55" cy="528.89" rx="72.55" ry="7"/><ellipse class="cls-1" cx="417.34" cy="527.31" rx="64.34" ry="8.59"/><rect class="cls-1" x="249.88" y="108.01" width="112.75" height="186.82" rx="12" ry="12"/><rect class="cls-1" x="120.88" y="108.01" width="112.75" height="186.82" rx="12" ry="12"/><rect class="cls-1" x="378.88" y="108.01" width="112.75" height="186.82" rx="12" ry="12"/><path class="cls-2" d="M576.86,854.6s-.47-13.39-2-15.85-.82-11.34-1.26-14.9-.27-12.13-.27-12.13l-10.63,3.45s1.63,15.43,1.33,18.2-3,10-6.13,13.25a36.69,36.69,0,0,1-8.42,6.61c-1.26.67-1.6,2.34,2.13,2.88a22.15,22.15,0,0,0,10.93-.71c4.1-1.33,8.13-5.91,8.13-5.91l.54,6,5.62.17Z" transform="translate(-175.72 -327.19)"/><path class="cls-3" d="M560.52,832.16l16.62-2.22a108.33,108.33,0,0,1,0-18.36c.85-10.17,3.88-24.15,4-35.27s3.61-45.75,4.05-48.92,9.94-46.07,10.31-49.25-1.82-15.93-1.82-15.93H569.93s-7.19,30.55-8.28,53.74-.22,67-.22,75.61.23,17.87,0,19.7S560.52,832.16,560.52,832.16Z" transform="translate(-175.72 -327.19)"/><path class="cls-2" d="M352.34,535.77s-48.84,55.33-51.92,55.67-27.66-11.27-27.66-11.27l-8.2,15s30.4,16,35.18,13.66,11.95-9.22,19.47-19.47,19.81-30,19.81-30a16.31,16.31,0,0,0,9.56-4.44c4.1-4.1,1-9.57,1.37-10.59s3.43-7,3.43-7Z" transform="translate(-175.72 -327.19)"/><path class="cls-2" d="M495.25,555.8s48.84,39.25,51.92,39.49,27.66-8,27.66-8L583,598s-30.4,11.39-35.18,9.69-12-6.54-19.47-13.81-19.81-21.31-19.81-21.31a20.37,20.37,0,0,1-9.56-3.15c-4.1-2.91-1-6.79-1.37-7.51s-3.44-5-3.44-5Z" transform="translate(-175.72 -327.19)"/><path class="cls-2" d="M251.27,567.67s-8.38-1.93-11.06-4.82-2.36-14.15-2.36-14.15,6.65,0,6.7-4.5-4.34-19.3-4.34-19.3-4.29-13.83-13.94-11.26-9.65,3.22-11.58,5.79-4.18,9.65-2.25,13.83,6.75,7.08,7.4,10.61,1.61,17.69,0,19.62-8.14,9-8.14,9,5.24,9.71,15.86,7.78,20.67-.33,22.19-6.44Z" transform="translate(-175.72 -327.19)"/><path class="cls-2" d="M582.54,580.17s8.12-1.86,10.72-4.66,2.29-13.69,2.29-13.69-3-.26-4.5-4.36c-2.51-7,1.21-17.67,1.21-17.67s4.84-11.53,14.51-11.89c8.26-.31,9.34,3.11,11.21,5.6s4.06,9.34,2.19,13.38-6.55,6.85-7.17,10.27-1.56,17.11,0,19,7.88,8.65,7.88,8.65-5.08,9.4-15.36,7.53-20-.31-21.5-6.22Z" transform="translate(-175.72 -327.19)"/><path class="cls-2" d="M294.72,856.32s-12.3-4.1-15-7.29-4.56-4.55-4.11-10,.83-8.87.83-8.87H260.67v22s-1.21,5.25,3,5.45,7.06-1,11.9-1,13.11,1,13.11,1h5S295.54,856.61,294.72,856.32Z" transform="translate(-175.72 -327.19)"/><path class="cls-2" d="M236.12,858.34s-10.51-5.53-12.54-9-3.5-5.05-2.37-10.42,1.9-8.69,1.9-8.69L209,828.33l-2.89,21.8s-1.78,5.06,2,5.76,6.47-.16,10.82.42a117.31,117.31,0,0,1,11.65,2.58l4.52.6S236.82,858.72,236.12,858.34Z" transform="translate(-175.72 -327.19)"/><path class="cls-3" d="M277.55,838l-16.09-1.47a4.15,4.15,0,0,1-3.76-4.39,80.92,80.92,0,0,0-.4-15c-1.29-10.51-5.85-25-6-36.45s-5.44-47.29-6.1-50.57-15-47.62-15.53-50.91c-.38-2.24,1-9.11,2-13.24a4.12,4.12,0,0,1,4-3.22h29.51a4.14,4.14,0,0,1,3.95,2.87c2.67,8.31,10.19,33,11.53,52.67,1.64,24,.33,69.3.33,78.16s-.33,18.47,0,20.36c.22,1.29.78,10.83,1.12,16.8A4.13,4.13,0,0,1,277.55,838Z" transform="translate(-175.72 -327.19)"/><line class="cls-4" x1="194.9" y1="11.03" x2="210.25" y2="11.03"/><line class="cls-4" x1="202.57" y1="18.71" x2="202.57" y2="3.35"/><circle class="cls-5" cx="306.26" cy="73.32" r="7.68"/><line class="cls-4" x1="268.68" y1="164.48" x2="284.04" y2="164.48"/><line class="cls-4" x1="276.36" y1="172.16" x2="276.36" y2="156.8"/><line class="cls-6" x1="226.32" y1="134.58" x2="241.68" y2="134.58"/><line class="cls-6" x1="234" y1="142.26" x2="234" y2="126.9"/><circle class="cls-7" cx="156.93" cy="9.8" r="7.3"/><path class="cls-8" d="M251.27,664.8s-.72,68.79-5.79,92.33-12.31,43.08-14.85,52.14-4,25.34-2.89,26.43c.86.86-12.29.34-17.59.1a2,2,0,0,1-1.88-2.23,273.49,273.49,0,0,0,2.09-28.65c0-13,2.53-40.55,4-49.24s.57-13.41-.18-19.54S211,674.81,213,669.66a20.43,20.43,0,0,1,3.41-6.17,2,2,0,0,1,1.5-.68h31.41a2,2,0,0,1,2,2Z" transform="translate(-175.72 -327.19)"/><path class="cls-1" d="M264.68,657.47l-42.93,2.3a3.36,3.36,0,0,1-3.53-3.6c.87-11.37,3.44-44.35,3.93-45.35s-9.43,3.95-14.65,6.56a3.35,3.35,0,0,1-4.58-1.67c-2.48-5.77-7.31-17.69-7.31-23.29,0-7.54,2.46-15.38,12.39-21.41l2.57-1.52a3.34,3.34,0,0,1,4.19.64c1.48,1.66,3.83,3.72,6.49,3.89,4.52.31,16.29.31,20.51-1.81a16.44,16.44,0,0,0,5.6-5.14,3.33,3.33,0,0,1,3.88-1.18,97.9,97.9,0,0,1,11,4.82c4.2,2.2,9.46,5.32,12.52,7.18a3.36,3.36,0,0,1,1.32,4.27l-7.28,15.92A3.36,3.36,0,0,1,265,600h0a3.36,3.36,0,0,0-4.1,3.18c-.18,6.74-.37,19.83.73,23.36s4.56,19.53,6.13,26.93A3.35,3.35,0,0,1,264.68,657.47Z" transform="translate(-175.72 -327.19)"/><path class="cls-9" d="M291.23,569.36s-11.94-1.16-12.69,0-10.15,26.84-10.15,26.84-1.49,6.12,0,6.87,9.56.74,9.56.74l13.88-31.37S293,569.51,291.23,569.36Z" transform="translate(-175.72 -327.19)"/><path class="cls-9" d="M253.59,517.51s-10-4.61-12.35-7.38-5.71-9.4-15.49-7.74-16.77,6.82-17.7,12.17-1.29,14,0,16.78,7.75,9,8.49,9.77,2.39-2.21,1.47-3.87-3.13-6.64-2-6.46,6.09,3.69,7,3.51,2.76-6.27,1.29-9.59,6.56-1.31,11.25-.55,12.72-.56,14.74-1.29S255.51,518.43,253.59,517.51Z" transform="translate(-175.72 -327.19)"/><path class="cls-2" d="M219.49,605.76s8.09,26.56,10.08,27.77,8.44-2.42,15.68-8,16.32-9.72,16.87-13,3.78-12,4.72-13.27,4.83-.78,4.83-.78l3.75-6.46s1.2-1,1.62,0,4.15,4.51,4.15,4.51-4.15,9.81-5.51,11.44-8.46,10.65-8.46,10.65-21.57,24.84-24.57,26.48-12.28,8.19-15.56,7.37-10.65-5.19-15-16.93-8.74-26.38-8.74-26.38Z" transform="translate(-175.72 -327.19)"/><path class="cls-2" d="M620.86,855.6s-.47-13.39-2-15.85-.82-11.34-1.26-14.9-.27-12.13-.27-12.13l-10.63,3.45s1.63,15.43,1.33,18.2-3,10-6.13,13.25-6.51,6.59-8.42,7.61c-1.26.67-1.6,1.34,2.13,1.88a22.15,22.15,0,0,0,10.93-.71c4.1-1.33,8.13-5.91,8.13-5.91l.54,6,5.62.17Z" transform="translate(-175.72 -327.19)"/><path class="cls-10" d="M588.54,665.14s.5,66.55,4,89.32,8.49,41.68,10.24,50.44,2.75,24.52,2,25.57,13.62,0,13.62,0-1.63-17.16-1.63-29.77S615,761.47,614,753.06s-.39-13,.13-18.91,2.15-59.33.82-64.31-2.81-6.63-2.81-6.63H588.54Z" transform="translate(-175.72 -327.19)"/><path class="cls-1" d="M573,667l37.35,2.25c1.67.1,6.18-5.41,6.07-7.08-.71-10.46-6.12-39.31-6.55-40.29s8,3.78,12.56,6.31a2.76,2.76,0,0,0,3.94-1.42c2.12-5.51,6.36-17.22,6.36-22.69,0-7.3-2.11-14.88-10.67-20.72L619.93,582a2.77,2.77,0,0,0-3.7.57c-1.28,1.61-3.3,3.59-5.59,3.76-3.89.29-14,.29-17.67-1.75a15.22,15.22,0,0,1-4.86-5,2.74,2.74,0,0,0-3.39-1.06,82.82,82.82,0,0,0-9.42,4.63c-3.78,2.23-8.56,5.43-11.14,7.19a2.77,2.77,0,0,0-1,3.34l6.55,16.11A2.79,2.79,0,0,0,573,611.4h0a2.78,2.78,0,0,1,3.47,2.62c.15,6.37.35,19.57-.63,23.07s-8.15,15.36-9.45,22.22C566.06,661,571.32,666.94,573,667Z" transform="translate(-175.72 -327.19)"/><path class="cls-9" d="M593,526c2.38-4.13,10.39-6.6,16.32-5.75,7,1,14.05,6.44,16,13.41,2.34,8.5-4.68,13-1.28,20.44,2.43,5.29,7,5.21,7.66,10.22.56,4.29-2.55,6.38-1.91,11.49.49,3.87,3.1,4.21,3.19,7,.15,4.85-6.53,11.08-11.49,10.21-6.8-1.19-13.18-16.19-10.22-28.09,1.51-6.09,2-8.52,1.19-13.69-.54-3.53.19-6.55-4-10-6.65-5.48-11.42-2.77-14.5-6.21C591.81,532.67,590.42,530.35,593,526Z" transform="translate(-175.72 -327.19)"/><path class="cls-2" d="M608.65,639.9c1.73-2.56,6.16-27.15,6.16-27.15l13.31-1.9s-4.43,29-8.26,32.29" transform="translate(-175.72 -327.19)"/><path class="cls-9" d="M581.7,676s-4.86,8.78-4.22,9.73,17.21,16.73,17.21,16.73,4.2,3.18,5.27,2.28,3.76-7.08,3.76-7.08l-19.45-21.1S582.42,674.71,581.7,676Z" transform="translate(-175.72 -327.19)"/><path class="cls-2" d="M618.85,639.37c.48,5-.4,12.27-3.81,22.15s-10.95,27-10.95,27a20.32,20.32,0,0,1,1.19,10c-.9,4.94-5.71,3.79-6.23,4.41s-2-.65-2-.65l-1-1.39s13.5-58.55,12.42-61.44" transform="translate(-175.72 -327.19)"/><rect class="cls-11" x="494.2" y="510.95" width="30.27" height="30.27" transform="translate(-237.18 -259.78) rotate(-7.14)"/><rect class="cls-11" x="318.51" y="458.52" width="30.27" height="30.27" transform="translate(-38.83 -398.47) rotate(15.31)"/><rect class="cls-11" x="191.79" y="181.33" width="30.27" height="30.27"/></svg>