<svg id="Layer_1" data-name="Layer 1" xmlns="http://www.w3.org/2000/svg" xmlns:xlink="http://www.w3.org/1999/xlink" viewBox="0 0 502.83 544"><defs><style>.cls-1{opacity:0.13;fill:url(#linear-gradient);}.cls-13,.cls-14,.cls-15,.cls-16,.cls-17,.cls-2{fill:none;}.cls-2{stroke:#4defb1;}.cls-11,.cls-13,.cls-14,.cls-15,.cls-16,.cls-17,.cls-2{stroke-miterlimit:10;}.cls-3{fill:#c1c4c6;}.cls-4{fill:#95f9cc;}.cls-5{fill:#ebf0f5;}.cls-6{fill:#9b9d9e;}.cls-7{fill:#201d1e;}.cls-8{fill:#3b9b8d;}.cls-9{fill:url(#linear-gradient-2);}.cls-10{fill:#45bfb0;}.cls-11{fill:#fff;}.cls-11,.cls-13{stroke:#ebf0f5;}.cls-12{fill:url(#linear-gradient-3);}.cls-14{stroke:#fff;}.cls-14,.cls-16,.cls-17{stroke-linecap:round;}.cls-15{stroke:#2fe6a6;}.cls-15,.cls-16,.cls-17{stroke-width:2px;}.cls-16{stroke:#45bfb0;}.cls-17{stroke:#e6e7e8;}.cls-18{fill:#4defb1;}</style><linearGradient id="linear-gradient" x1="324.81" y1="581.85" x2="575.66" y2="581.85" gradientUnits="userSpaceOnUse"><stop offset="0" stop-color="#4defb1"/><stop offset="1" stop-color="#45bfb0"/></linearGradient><linearGradient id="linear-gradient-2" x1="457.91" y1="638.79" x2="462.39" y2="806.94" gradientUnits="userSpaceOnUse"><stop offset="0" stop-color="#45bfb0"/><stop offset="1" stop-color="#3b9b8d"/></linearGradient><linearGradient id="linear-gradient-3" x1="30.5" y1="162.87" x2="143.25" y2="162.87" xlink:href="#linear-gradient"/></defs><title>person5</title><path class="cls-1" d="M339.8,650.26c13.74-50.34-7.23-68.82,10.41-91.11C367.42,537.38,393,548,402.27,529.21c11.67-23.48-25.29-46.25-22.12-83.3,3-35.58,42.31-75.81,87.2-75.49,47.23.33,84.79,45.42,88.51,84.6,5.77,60.84-71.93,88.06-61.18,139.27,9.08,43.2,68.57,43.84,79.4,96.31,5.73,27.76-5,56.5-19.52,72.89-48.12,54.13-158.2,26-204.35-16.92-7.43-6.91-21.34-20.19-24.73-40.35S332.24,677.94,339.8,650.26Z" transform="translate(-245.46 -340.66)"/><path class="cls-2" d="M319.09,659.72c16.17-57.3-8.5-78.33,12.25-103.72,20.25-24.77,50.3-12.73,61.26-34.07,13.72-26.73-29.76-52.65-26-94.83,3.57-40.5,49.79-86.29,102.61-85.94,55.56.38,99.76,51.71,104.13,96.31,6.79,69.26-84.63,100.24-72,158.54C512,645.18,582,645.91,594.74,705.65c6.74,31.6-5.82,64.31-23,83-56.62,61.61-186.13,29.61-240.43-19.26-8.74-7.86-25.1-23-29.1-45.93C298.28,700.64,310.19,691.24,319.09,659.72Z" transform="translate(-245.46 -340.66)"/><path class="cls-3" d="M431.45,560.89s7.3-4,9-7.41-1.54-13.8-1.54-13.8-3,.58-5.51-3c-4.32-6-3.66-17.33-3.66-17.33S431.29,507,440.49,504c7.88-2.55,9.85.45,12.33,2.33s6.44,7.87,5.75,12.28-4.43,8.37-4.1,11.83,3.17,16.89,5.18,18.26,9.94,6.17,9.94,6.17-2.32,10.42-12.72,11.43-19.36,5.17-22.39-.11Z" transform="translate(-245.46 -340.66)"/><path class="cls-4" d="M424.06,585.67a2.77,2.77,0,0,0,3.31,1.53h0c1.72-.5,1.46.79,1.56,2.58.38,6.36,3,19.47,2.16,23-.89,3.69-7.63,15.63-8.69,22.53-.25,1.66,5.21,7.46,6.89,7.5l40.4,1c1.68,0,3-5.59,2.83-7.26,0,0,2.47-5.39,4.15-9.14s.67-14.29,1.91-19,8.32-9.33,9.81-16.53c.73-3.52-.42-7.47-1.78-10.61a20.19,20.19,0,0,0,.24-3.36c-.25-7.29-2.62-14.8-11.37-20.34l-2.18-1.34a2.78,2.78,0,0,0-3.68.69c-1.22,1.65-3.17,3.7-5.45,4-3.89.43-14,.77-17.72-1.15a15.15,15.15,0,0,1-5-4.86,2.76,2.76,0,0,0-3.43-.94,84.61,84.61,0,0,0-8.54,4.51,8.09,8.09,0,0,0-.71.44c-1,.61-2,1.29-3,2,0,0-9.27,7-7.89,10.1s-3.86,27.39-3.19,30.57,2.8,13.46,5.91,14.32,12.2,4.23,12.2,4.23l2.69-35-11.36.54m40.59,10.7a.41.41,0,0,0,0,.09C464.57,596.41,464.59,596.38,464.65,596.37Z" transform="translate(-245.46 -340.66)"/><ellipse class="cls-5" cx="198.49" cy="489.47" rx="58.96" ry="4.29"/><path class="cls-6" d="M434.14,830.52s-.47-13.38-2-15.85-.82-11.33-1.25-14.89-.27-12.13-.27-12.13L420,791.09s1.62,15.44,1.33,18.21-3,10-6.13,13.24a36.69,36.69,0,0,1-8.42,6.61c-1.26.67-1.6,2.35,2.13,2.88a22,22,0,0,0,10.93-.7c4.1-1.33,8.12-5.91,8.12-5.91l.55,6,5.62.18Z" transform="translate(-245.46 -340.66)"/><path class="cls-7" d="M421.36,812.3c-.3,2.76-3,7-6.13,10.24a36.69,36.69,0,0,1-8.42,6.61c-1.26.67-1.6,2.35,2.13,2.88a22,22,0,0,0,10.93-.7c4.1-1.33,8.12-5.91,8.12-5.91l.55,6,5.62.18,0-1.05s-.47-13.38-2-15.85-.82-.33-1.25-3.89" transform="translate(-245.46 -340.66)"/><path class="cls-8" d="M418.8,808.08l16.62-2.22a108.24,108.24,0,0,1,0-18.35c.85-10.17,3.88-24.15,4-35.27s3.61-45.75,4-48.93,10-46.07,10.31-49.24S452,638.14,452,638.14H428.21s-7.19,30.54-8.28,53.74-.22,67-.22,75.61.22,17.86,0,19.69S418.8,808.08,418.8,808.08Z" transform="translate(-245.46 -340.66)"/><path class="cls-6" d="M476.14,831.52s-.47-13.38-2-15.85-.82-11.33-1.25-14.89-.27-12.13-.27-12.13L462,792.09s1.62,15.44,1.33,18.21-3,10-6.13,13.24-6.51,6.59-8.42,7.61c-1.26.67-1.6,1.35,2.13,1.88a22,22,0,0,0,10.93-.7c4.1-1.33,8.12-5.91,8.12-5.91l.55,6,5.62.18Z" transform="translate(-245.46 -340.66)"/><path class="cls-9" d="M444.82,641.07s.5,66.55,4,89.32,8.49,41.68,10.24,50.44,2.75,24.52,2,25.57,13.61,0,13.61,0-1.62-17.17-1.62-29.78S471.3,737.39,470.3,729s-.39-13,.12-18.91,2.16-59.33.83-64.31-2.81-6.63-2.81-6.63H444.82Z" transform="translate(-245.46 -340.66)"/><path class="cls-3" d="M464,614.48c1.63-2.62,5.23-27.35,5.23-27.35l13.24-2.34s-3.45,29.09-7.16,32.55" transform="translate(-245.46 -340.66)"/><path class="cls-7" d="M398,566.78s1.18,5.76,1.82,6.72,17.34,16.59,17.34,16.59,4.22,3.15,5.28,2.25-2.27-4.07-2.27-4.07l-19.61-20.95S398.73,565.45,398,566.78Z" transform="translate(-245.46 -340.66)"/><path class="cls-10" d="M430.28,593.88c2.17-2.76,3-.87,5-.16s3.58,13.09,2.93,17.48-.91,9.78-3.19,9.86-4.09,3.24-5.8-1.72S430.28,593.88,430.28,593.88Z" transform="translate(-245.46 -340.66)"/><path class="cls-6" d="M440,539.88s4.52-1.74,6.17-3.13a19.71,19.71,0,0,0,3.58-4.17s.47,7.46-1.88,9.81a21.55,21.55,0,0,1-5.25,3.12Z" transform="translate(-245.46 -340.66)"/><path class="cls-7" d="M426.68,505.89c1.17-4.62,8.19-9.19,14.14-10,7-.94,15.27,2.36,19,8.54,4.57,7.54-.95,13.81,4.34,20,3.78,4.43,8.18,3.1,10.16,7.74,1.71,4-.71,6.84,1.3,11.58,1.52,3.59,4.13,3.2,5,5.89,1.47,4.63-3.26,12.45-8.27,13-6.87.71-17.1-12-17.5-24.25-.2-6.27-.42-8.74-2.59-13.49-1.48-3.25-1.61-6.36-6.6-8.55-7.9-3.46-11.74.45-15.65-2C427.4,512.66,425.44,510.81,426.68,505.89Z" transform="translate(-245.46 -340.66)"/><path class="cls-7" d="M463.18,813.27c-.24,2.77-2.86,7-5.94,10.36A36.42,36.42,0,0,1,449,830.4c-1.24.69-1.55,2.37,2.19,2.84a22.09,22.09,0,0,0,10.91-.92c4.08-1.4,8-6.06,8-6.06l.66,6,5.63.07-.05-1s-.72-13.37-2.25-15.81-.83-.32-1.33-3.87" transform="translate(-245.46 -340.66)"/><path class="cls-3" d="M468.6,625.47c-4.94-1.18-11.48-4.35-19.72-10.79s-21.94-19.11-21.94-19.11a20.35,20.35,0,0,1-9.85-2.13c-4.38-2.46-1.73-6.63-2.15-7.32s1.26-1.67,1.26-1.67l1.63-.44s51,31.79,54.07,31.7" transform="translate(-245.46 -340.66)"/><path class="cls-4" d="M443.79,614.34a31.79,31.79,0,0,1,5,5.62c2.05,3.09,9.86,6.47,15.28,7.81s16.41-.81,16.73-3.91,2-17.75,2.6-22.83-.17-23.66-.17-23.66l-18.16.13s-1.44,12.11-.5,19,.86,11.74-2.28,11.14c-4.62-.87-16.24-6.28-16.24-6.28Z" transform="translate(-245.46 -340.66)"/><path class="cls-10" d="M441.07,614.94s2,.21,2.72-.6,5.59-11.23,7-12.32,1.93-7.46-1.44-6.56-8.58.46-9.14,2.59-7.65,11.62-7.56,13.78-.24,3.64.85,3.88S441.07,614.94,441.07,614.94Z" transform="translate(-245.46 -340.66)"/><rect class="cls-11" x="0.5" y="87" width="112.75" height="41.73" rx="12" ry="12"/><rect class="cls-12" x="30.5" y="142" width="112.75" height="41.73" rx="12" ry="12"/><rect class="cls-11" x="0.5" y="198" width="112.75" height="41.73" rx="12" ry="12"/><line class="cls-13" x1="16.63" y1="100.95" x2="92.48" y2="100.95"/><line class="cls-13" x1="16.63" y1="114.95" x2="92.48" y2="114.95"/><line class="cls-13" x1="16.63" y1="214.95" x2="92.48" y2="214.95"/><line class="cls-13" x1="16.63" y1="226.95" x2="92.48" y2="226.95"/><line class="cls-14" x1="48.63" y1="156.95" x2="124.48" y2="156.95"/><line class="cls-14" x1="48.63" y1="170.95" x2="124.48" y2="170.95"/><circle class="cls-15" cx="66.07" cy="291.61" r="4.09"/><line class="cls-16" x1="37.78" y1="357.78" x2="30.5" y2="361.53"/><line class="cls-16" x1="32.27" y1="356.01" x2="36.01" y2="363.29"/><line class="cls-17" x1="98.77" y1="380.29" x2="91.49" y2="384.04"/><line class="cls-17" x1="93.26" y1="378.53" x2="97.01" y2="385.81"/><circle class="cls-15" cx="164.14" cy="101.56" r="4.09"/><line class="cls-16" x1="232.69" y1="123.46" x2="237.11" y2="130.35"/><line class="cls-16" x1="231.45" y1="129.12" x2="238.34" y2="124.7"/><line class="cls-17" x1="249.33" y1="60.61" x2="253.75" y2="67.51"/><line class="cls-17" x1="248.1" y1="66.27" x2="254.99" y2="61.85"/><ellipse class="cls-5" cx="309.13" cy="539.71" rx="58.96" ry="4.29"/><rect class="cls-7" x="275.26" y="466.2" width="71.92" height="8.14" rx="4.07" ry="4.07"/><rect class="cls-7" x="542.64" y="844" width="75.99" height="2.35" rx="1.18" ry="1.18" transform="translate(-205.82 1375.6) rotate(-113.67)"/><polyline class="cls-7" points="351.03 537.76 323.81 470.27 316.66 470.27 348.88 538.71"/><rect class="cls-7" x="495.08" y="844" width="75.99" height="2.35" rx="1.18" ry="1.18" transform="translate(-700.47 653.47) rotate(-66.33)"/><polyline class="cls-7" points="271.75 537.76 298.97 470.27 306.13 470.27 273.91 538.71"/><rect class="cls-2" x="360.96" y="221.83" width="67.37" height="30.09"/><rect class="cls-2" x="287.96" y="221.83" width="67.37" height="30.09"/><rect class="cls-2" x="434.96" y="221.83" width="67.37" height="30.09"/><rect class="cls-2" x="398.36" y="185.57" width="67.37" height="30.09"/><rect class="cls-2" x="362.36" y="147.57" width="67.37" height="30.09"/><rect class="cls-18" x="325.36" y="185.57" width="67.37" height="30.09"/><rect class="cls-18" x="398.36" y="258.57" width="67.37" height="30.09"/><rect class="cls-2" x="361.36" y="295.57" width="67.37" height="30.09"/><rect class="cls-2" x="401.36" y="331.57" width="67.37" height="30.09"/><rect class="cls-2" x="324.36" y="258.57" width="67.37" height="30.09"/></svg>