<svg id="Layer_1" data-name="Layer 1" xmlns="http://www.w3.org/2000/svg" xmlns:xlink="http://www.w3.org/1999/xlink" viewBox="0 0 435.55 627.26"><defs><style>.cls-1{opacity:0.13;fill:url(#linear-gradient);}.cls-11,.cls-12,.cls-13,.cls-2,.cls-21,.cls-28,.cls-29,.cls-3,.cls-30,.cls-31{fill:none;}.cls-2,.cls-21,.cls-3,.cls-30,.cls-5{stroke:#4defb1;}.cls-11,.cls-12,.cls-13,.cls-2,.cls-28,.cls-29,.cls-3,.cls-31,.cls-5{stroke-miterlimit:10;}.cls-3{opacity:0.39;}.cls-4{fill:#ebf0f5;}.cls-5{fill:#fff;}.cls-6{fill:#ced2d6;}.cls-7{fill:#9b9d9e;}.cls-8{fill:#201d1e;}.cls-9{fill:#3b9b8d;}.cls-10{fill:#d3dbdd;}.cls-11{stroke:#45bfb0;}.cls-11,.cls-12,.cls-21,.cls-30{stroke-linecap:round;}.cls-11,.cls-12,.cls-13{stroke-width:2px;}.cls-12{stroke:#e6e7e8;}.cls-13{stroke:#2fe6a6;}.cls-14{fill:url(#linear-gradient-2);}.cls-15{fill:#c1c4c6;}.cls-16{fill:#4defb1;}.cls-17{fill:#45bfb0;}.cls-18{fill:#95f9cc;}.cls-19{fill:url(#linear-gradient-3);}.cls-20{fill:url(#linear-gradient-4);}.cls-21,.cls-30{stroke-linejoin:round;}.cls-21,.cls-28,.cls-29{stroke-width:0.5px;}.cls-22{fill:#2fe6a6;}.cls-23{fill:url(#linear-gradient-5);}.cls-24{fill:url(#linear-gradient-6);}.cls-25{fill:url(#linear-gradient-7);}.cls-26{fill:url(#linear-gradient-8);}.cls-27{fill:url(#linear-gradient-9);}.cls-28,.cls-31{stroke:#201d1e;}.cls-29{stroke:url(#linear-gradient-10);}.cls-32{opacity:0.97;fill:url(#linear-gradient-11);}</style><linearGradient id="linear-gradient" x1="254.71" y1="517.35" x2="531.49" y2="517.35" gradientUnits="userSpaceOnUse"><stop offset="0" stop-color="#4defb1"/><stop offset="1" stop-color="#45bfb0"/></linearGradient><linearGradient id="linear-gradient-2" x1="467.91" y1="604.79" x2="472.39" y2="772.94" gradientUnits="userSpaceOnUse"><stop offset="0" stop-color="#45bfb0"/><stop offset="1" stop-color="#3b9b8d"/></linearGradient><linearGradient id="linear-gradient-3" x1="589.42" y1="-1276.22" x2="620.99" y2="-1276.22" gradientTransform="translate(111.01 2078.31) rotate(-18.53)" xlink:href="#linear-gradient"/><linearGradient id="linear-gradient-4" x1="561.62" y1="-1252.37" x2="601.62" y2="-1252.37" gradientTransform="translate(111.01 2078.31) rotate(-18.53)" xlink:href="#linear-gradient"/><linearGradient id="linear-gradient-5" x1="682.6" y1="-1316.27" x2="687.96" y2="-1316.27" gradientTransform="translate(-90.99 1793.29) rotate(-18.53)" xlink:href="#linear-gradient"/><linearGradient id="linear-gradient-6" x1="621.96" y1="-1203.69" x2="629.35" y2="-1203.69" gradientTransform="translate(-90.99 1793.29) rotate(-18.53)" xlink:href="#linear-gradient"/><linearGradient id="linear-gradient-7" x1="644.44" y1="-1220.07" x2="651.82" y2="-1220.07" gradientTransform="translate(-90.99 1793.29) rotate(-18.53)" xlink:href="#linear-gradient"/><linearGradient id="linear-gradient-8" x1="665.43" y1="-1242.4" x2="672.81" y2="-1242.4" gradientTransform="translate(-90.99 1793.29) rotate(-18.53)" xlink:href="#linear-gradient"/><linearGradient id="linear-gradient-9" x1="669.12" y1="-1274.59" x2="676.51" y2="-1274.59" gradientTransform="translate(-90.99 1793.29) rotate(-18.53)" xlink:href="#linear-gradient"/><linearGradient id="linear-gradient-10" x1="600.76" y1="-1248.38" x2="650.55" y2="-1248.38" gradientTransform="translate(111.01 2078.31) rotate(-18.53)" xlink:href="#linear-gradient"/><linearGradient id="linear-gradient-11" x1="521.05" y1="674.97" x2="637.54" y2="674.97" xlink:href="#linear-gradient"/></defs><title>person3</title><path class="cls-1" d="M296,429.73c-27.88,22.1-40.43,36.81-41.26,59.08-1.25,33.34,25.06,49.66,26,99.09.86,43.62-18.93,65.66-16.5,89.57,3.73,36.61,53.92,21.83,69.82,17.15,63.07-18.57,68.15-55.55,99-38.12,27.7,15.65,36,52.44,59.66,40,18-9.45,38.85-44.28,38.72-80-.21-56.93-53.54-89.25-51.41-125.77,1.43-24.57,26.09-18.73,28.56-47.64,2.41-28.17-17.14-79-39.35-101-24.77-24.58-33.83,5.48-106.52,43.55C357.2,388.54,330.55,402.35,296,429.73Z" transform="translate(-202 -285.02)"/><path class="cls-2" d="M289.66,424c-29.7,23.55-43.07,39.22-44,62.94-1.33,35.53,26.69,52.91,27.72,105.57.91,46.47-20.17,70-17.58,95.42,4,39,57.44,23.26,74.38,18.27,67.19-19.78,72.61-59.17,105.49-40.6,29.51,16.67,38.4,55.86,63.57,42.63,19.16-10.07,41.39-47.17,41.25-85.27-.22-60.65-57-95.08-54.78-134,1.53-26.18,27.8-20,30.43-50.76,2.57-30-18.25-84.12-41.92-107.6-26.39-26.18-36,5.84-113.49,46.4C354.85,380.12,326.46,394.83,289.66,424Z" transform="translate(-202 -285.02)"/><path class="cls-3" d="M277,412.6c-33.33,26.42-48.33,44-49.33,70.63-1.49,39.86,30,59.37,31.11,118.46,1,52.15-22.64,78.5-19.72,107.08,4.45,43.77,64.45,26.1,83.47,20.5,75.39-22.2,81.47-66.4,118.37-45.56C474,702.41,484,746.4,512.26,731.55c21.51-11.3,46.44-52.94,46.29-95.68-.25-68.07-64-106.7-61.47-150.37,1.72-29.38,31.19-22.39,34.15-56.95,2.88-33.68-20.49-94.4-47.05-120.75-29.61-29.38-40.43,6.55-127.34,52.07C350.18,363.36,318.32,379.87,277,412.6Z" transform="translate(-202 -285.02)"/><ellipse class="cls-4" cx="251.96" cy="511.12" rx="58.96" ry="4.29"/><ellipse class="cls-4" cx="370.79" cy="514.41" rx="58.96" ry="4.29"/><ellipse class="cls-4" cx="157.46" cy="619.04" rx="157.46" ry="8.22"/><rect class="cls-5" x="37.79" y="176.43" width="30.27" height="30.27"/><rect class="cls-5" x="226.54" y="120.73" width="30.27" height="30.27"/><rect class="cls-5" x="360.48" y="452.88" width="30.27" height="30.27" transform="translate(-257.27 -234.68) rotate(-7.14)"/><rect class="cls-6" x="144.54" y="116.73" width="30.27" height="30.27"/><path class="cls-7" d="M444.14,796.52s-.47-13.38-2-15.85-.82-11.33-1.25-14.89-.27-12.13-.27-12.13L430,757.09s1.62,15.44,1.33,18.21-3,10-6.13,13.24a36.69,36.69,0,0,1-8.42,6.61c-1.26.67-1.6,2.35,2.13,2.88a22,22,0,0,0,10.93-.7c4.1-1.33,8.12-5.91,8.12-5.91l.55,6,5.62.18Z" transform="translate(-202 -285.02)"/><path class="cls-8" d="M431.36,778.3c-.3,2.76-3,7-6.13,10.24a36.69,36.69,0,0,1-8.42,6.61c-1.26.67-1.6,2.35,2.13,2.88a22,22,0,0,0,10.93-.7c4.1-1.33,8.12-5.91,8.12-5.91l.55,6,5.62.18,0-1.05s-.47-13.38-2-15.85-.82-.33-1.25-3.89" transform="translate(-202 -285.02)"/><path class="cls-9" d="M428.8,774.08l16.62-2.22a108.24,108.24,0,0,1,0-18.35c.85-10.17,3.88-24.15,4-35.27s3.61-45.75,4-48.93,10-46.07,10.31-49.24S462,604.14,462,604.14H438.21s-7.19,30.54-8.28,53.74-.22,67-.22,75.61.22,17.86,0,19.69S428.8,774.08,428.8,774.08Z" transform="translate(-202 -285.02)"/><path class="cls-10" d="M359.07,499.58s49.87,37.93,52.95,38.09,27.44-8.73,27.44-8.73l8.48,10.44S417.85,551.57,413,550s-12.13-6.22-19.83-13.28-20.37-20.78-20.37-20.78a20.32,20.32,0,0,1-9.65-2.9c-4.17-2.79-1.2-6.75-1.56-7.47s-3.57-4.88-3.57-4.88Z" transform="translate(-202 -285.02)"/><path class="cls-10" d="M447,521.62s8.06-2.08,10.58-5,1.93-13.75,1.93-13.75-3-.17-4.61-4.23c-2.7-6.9.73-17.69.73-17.69s4.53-11.66,14.19-12.28c8.26-.53,9.43,2.86,11.36,5.3s4.3,9.23,2.54,13.32-6.36,7-6.89,10.45-1.1,17.15.5,19,8.12,8.44,8.12,8.44-4.83,9.52-15.16,7.93-20,.22-21.66-5.65Z" transform="translate(-202 -285.02)"/><line class="cls-11" x1="85.85" y1="43.03" x2="94.03" y2="43.03"/><line class="cls-11" x1="89.94" y1="47.13" x2="89.94" y2="38.94"/><line class="cls-12" x1="41.93" y1="5.09" x2="50.12" y2="5.09"/><line class="cls-12" x1="46.02" y1="9.19" x2="46.02" y2="1"/><circle class="cls-13" cx="271.78" cy="13.02" r="4.09"/><line class="cls-12" x1="164.48" y1="19.25" x2="160.44" y2="12.13"/><line class="cls-12" x1="166.02" y1="13.67" x2="158.9" y2="17.71"/><circle class="cls-13" cx="47.46" cy="302.67" r="4.09"/><line class="cls-12" x1="339.63" y1="436.26" x2="332.35" y2="440.01"/><line class="cls-12" x1="334.12" y1="434.49" x2="337.87" y2="441.77"/><path class="cls-7" d="M486.14,797.52s-.47-13.38-2-15.85-.82-11.33-1.25-14.89-.27-12.13-.27-12.13L472,758.09s1.62,15.44,1.33,18.21-3,10-6.13,13.24-6.51,6.59-8.42,7.61c-1.26.67-1.6,1.35,2.13,1.88a22,22,0,0,0,10.93-.7c4.1-1.33,8.12-5.91,8.12-5.91l.55,6,5.62.18Z" transform="translate(-202 -285.02)"/><path class="cls-14" d="M454.82,607.07s.5,66.55,4,89.32,8.49,41.68,10.24,50.44,2.75,24.52,2,25.57,13.61,0,13.61,0-1.62-17.17-1.62-29.78S481.3,703.39,480.3,695s-.39-13,.12-18.91,2.16-59.33.83-64.31-2.81-6.63-2.81-6.63H454.82Z" transform="translate(-202 -285.02)"/><path class="cls-15" d="M474.67,580.63c1.66-2.61,5.43-27.31,5.43-27.31l13.26-2.25s-3.66,29.07-7.4,32.5" transform="translate(-202 -285.02)"/><path class="cls-8" d="M448,618s-4.86,8.77-4.22,9.73S461,644.41,461,644.41s4.2,3.19,5.27,2.29,3.75-7.08,3.75-7.08l-19.45-21.1S448.69,616.64,448,618Z" transform="translate(-202 -285.02)"/><path class="cls-10" d="M484.85,579.83c.62,5-.07,12.27-3.21,22.24s-10.23,27.25-10.23,27.25a20.27,20.27,0,0,1,1.45,10c-.77,5-5.61,3.94-6.11,4.57s-2-.59-2-.59l-1-1.37s11.94-58.89,10.78-61.75" transform="translate(-202 -285.02)"/><rect class="cls-16" x="310.9" y="473.69" width="30.27" height="30.27" transform="translate(-141.61 -320.29) rotate(6.82)"/><rect class="cls-17" x="143.35" y="115.43" width="30.27" height="30.27"/><path class="cls-18" d="M497.52,547.57a20.34,20.34,0,0,0,.27-3.35c-.2-7.29-2.51-14.82-11.22-20.43l-2.17-1.35a2.76,2.76,0,0,0-3.68.67c-1.24,1.64-3.2,3.67-5.49,3.91-3.88.39-14,.66-17.71-1.28a15.29,15.29,0,0,1-5-4.9,2.75,2.75,0,0,0-3.42-1,85.57,85.57,0,0,0-8.58,4.45,6.11,6.11,0,0,0-.71.43c-1,.61-2,1.28-3.05,2-10.1,6.28-20.54,9.93-23.13,9.51-2.85-.45-23.57-13.54-23.57-13.54l-1.42,19.66s3.9-.42,9.42,4.93,8.06,13.46,14.19,12.15,19.37-9.47,22.68-7.91a2.79,2.79,0,0,0,3.31,1.56h0c1.72-.49,1.44.8,1.54,2.58.32,6.36,2.87,19.5,2,23-.92,3.68-7.75,15.58-8.86,22.47-.26,1.65,5.16,7.49,6.83,7.55l40.4,1.25c1.67.06,3-5.56,2.88-7.23,0,0,2.51-5.38,4.22-9.11s.77-14.29,2.05-19,8.39-9.27,9.93-16.46C500,554.69,498.86,550.72,497.52,547.57Zm-22.07,14.95a.47.47,0,0,1-.05.1C475.38,562.56,475.4,562.53,475.45,562.52Z" transform="translate(-202 -285.02)"/><path class="cls-17" d="M385.44,519.35c2.19-2.76,3-.85,5-.13s3.48,13.12,2.8,17.5-1,9.78-3.26,9.84-4.12,3.21-5.79-1.76S385.44,519.35,385.44,519.35Z" transform="translate(-202 -285.02)"/><path class="cls-7" d="M459.49,502.92s4.83.38,6.92-.18a19.8,19.8,0,0,0,5-2.23s-2.77,6.94-5.9,8.06a21.67,21.67,0,0,1-6.08.56Z" transform="translate(-202 -285.02)"/><path class="cls-8" d="M455.94,467.15c2.28-4.2,10.21-6.88,16.17-6.18,7,.82,14.21,6.06,16.32,13,2.56,8.43-4.33,13.14-.73,20.46,2.56,5.22,7.15,5,7.93,10,.67,4.28-2.39,6.45-1.61,11.54.59,3.86,3.22,4.13,3.38,6.94.28,4.85-6.24,11.26-11.22,10.52-6.83-1-13.61-15.84-11-27.82,1.35-6.12,1.75-8.57.82-13.71-.63-3.51,0-6.56-4.29-9.91-6.79-5.31-11.48-2.47-14.65-5.83C455,473.89,453.53,471.6,455.94,467.15Z" transform="translate(-202 -285.02)"/><path class="cls-17" d="M466,606.35s-.63,1.89,0,2.79,9.78,7.85,10.54,9.48,6.88,3.48,6.72,0,1.38-8.48-.58-9.48-9.72-10-11.84-10.33-3.52-1-4,0S466,606.35,466,606.35Z" transform="translate(-202 -285.02)"/><path class="cls-8" d="M473.18,779.27c-.24,2.77-2.86,7-5.94,10.36A36.42,36.42,0,0,1,459,796.4c-1.24.69-1.55,2.37,2.19,2.84a22.09,22.09,0,0,0,10.91-.92c4.08-1.4,8-6.06,8-6.06l.66,6,5.63.07-.05-1s-.72-13.37-2.25-15.81-.83-.32-1.33-3.87" transform="translate(-202 -285.02)"/><path class="cls-19" d="M300.79,744.09c-.79-2.58-1.19-3.88-2.1-5.16a14.38,14.38,0,0,1-2.62-4.51c-.73-2.41.54-3.09,0-4.81-1.07-3.69-7.24-3.06-8.24-6.26-.91-2.94,3.79-5.17,3-8.15-1-3.54-8.29-2.88-9.13-6.16-.8-3.13,5.38-5.71,4.71-8.66-.94-4.08-13.25-1.54-14.6-6.72-1.42-5.41,9-8,8.09-10.55s-11.25,3.25-13.53-2.64c-2.43-6.3,8-8,6.77-11.6-1.31-3.8-12.16,1.21-14.13-5.28-1.59-5.24,7.93-5.2,6.32-10.34-1.26-4-11-.07-12.86-7.23-1-3.66,8.15-7.45,7.17-10.75-.91-3-8.59,1-10.21-5.12-.85-3.2,5.49-6.29,4.54-10.14-.83-3.35-6.27-3.19-6.76-6.43-.36-2.41,2.48-2.45,3.22-5.83,1.09-5-1.61-7.22,2-8.6.91-.35,2.46.92,3.28,2.32,2.09,3.59-1.07,7.24.5,9.56s6.85-2.44,8.84,1.08c3.85,6.79-3,9-1.82,12.83.87,2.8,6.67-.1,7.79,2.4,3,6.63-5.62,10.45-3.49,13.93s12.22-3.59,13.82,2.61c1.9,7.34-7.61,11.35-5.47,15s12.8-3.79,15,2.47S282,670,283.26,673.11c1.14,2.76,10-3.11,11.49,3.17,1.41,5.94-8.51,7.31-6.9,13.12,1.65,6,12.38,1.58,13.24,5.38,1.7,7.42-7.23,8-5.88,11.5,1,2.52,5.85,1.4,7.11,4.28,1.33,3-3.35,6-2.16,9.87.93,3.07,4.23,2.68,4.87,5.75.57,2.72-1.87,3.88-1.74,8.31a16.86,16.86,0,0,0,.77,4.12,58.2,58.2,0,0,0,2.64,7.2c1.53,3.73,1.92,4.42,1.51,5.24-.77,1.51-3.69,2.26-5.27,1.21S302.37,749.24,300.79,744.09Z" transform="translate(-202 -285.02)"/><path class="cls-20" d="M297.42,760.76a14.88,14.88,0,0,0-2.77-4.11,12.83,12.83,0,0,1-3.11-3.43c-1.08-2-.1-2.79-.85-4.19-1.61-3-6.86-1.33-8.31-3.93-1.33-2.39,2.35-5.19,1.08-7.63-1.51-2.9-7.74-1-9.07-3.68s3.63-5.95,2.5-8.39c-1.56-3.38-11.8,1.09-13.92-3.16-2.23-4.45,6.38-8.63,5.09-10.67s-9.18,4.9-12.24.19c-3.28-5,5.49-8.45,3.75-11.33-1.84-3.06-10.35,3.29-13.25-2-2.35-4.26,5.93-6,3.59-10.15-1.84-3.27-9.56,2-12.51-3.92-1.51-3,5.72-8,4.26-10.66-1.35-2.48-7.29,2.42-9.82-2.59-1.32-2.61,3.62-6.47,2.08-9.65-1.33-2.75-6-1.61-7-4.34-.76-2,1.7-2.59,1.72-5.66,0-4.55-2.72-6,.18-7.85.73-.47,2.31.35,3.28,1.42,2.48,2.73.4,6.48,2.19,8.21s5.5-3.38,7.89-.68c4.59,5.19-1,8.35.77,11.49,1.28,2.28,5.78-1.31,7.22.66,3.79,5.21-3,10.11-.49,12.75s10-5.37,12.5-.28c3,6-4.53,11.27-2,14.1s10.43-5.65,13.51-.61-6.19,9.13-4.51,11.58c1.5,2.19,8.11-4.54,10.57.65,2.32,4.91-6,7.92-3.59,12.68s11.05-.9,12.5,2.24c2.84,6.14-4.82,8.29-3,11.08,1.32,2,5.34.14,7,2.42s-1.82,5.78-.07,9c1.38,2.5,4.18,1.56,5.29,4.1,1,2.27-.91,3.72,0,7.55a15,15,0,0,0,1.43,3.44,51.48,51.48,0,0,0,3.62,5.78c2,3,2.48,3.49,2.27,4.27-.39,1.46-2.79,2.64-4.36,2S299.74,764.94,297.42,760.76Z" transform="translate(-202 -285.02)"/><path class="cls-21" d="M298.82,759.7a328.34,328.34,0,0,0-26.62-47c-8.83-12.92-15.46-20.56-27.08-38.32-7.87-12-13.78-22.22-17.56-29" transform="translate(-202 -285.02)"/><circle class="cls-22" cx="116.08" cy="464.33" r="3.69"/><circle class="cls-22" cx="149.88" cy="473.38" r="1.34"/><circle class="cls-22" cx="142.31" cy="423.07" r="1.34"/><circle class="cls-22" cx="146.87" cy="421.54" r="1.34"/><circle class="cls-22" cx="141.65" cy="396.91" r="1.34"/><circle class="cls-22" cx="135.51" cy="363.45" r="1.34"/><circle class="cls-22" cx="134.86" cy="341.85" r="1.34"/><circle class="cls-22" cx="117.74" cy="457.67" r="2.68"/><circle class="cls-22" cx="124.78" cy="444.7" r="2.68"/><circle class="cls-22" cx="134.21" cy="437.7" r="2.68"/><circle class="cls-22" cx="147.42" cy="417.36" r="2.68"/><circle class="cls-22" cx="145.95" cy="395.07" r="2.68"/><circle class="cls-23" cx="140.33" cy="327.45" r="2.68"/><circle class="cls-22" cx="140.69" cy="364.57" r="2.68"/><circle class="cls-24" cx="119.58" cy="453.16" r="3.69"/><circle class="cls-25" cx="135.69" cy="430.48" r="3.69"/><circle class="cls-26" cx="148.49" cy="402.63" r="3.69"/><circle class="cls-27" cx="141.76" cy="370.94" r="3.69"/><circle class="cls-22" cx="140.02" cy="342.51" r="3.69"/><path class="cls-8" d="M303.5,765.4c-5.87-16.84-3.67-23.46-7.73-32.76-.58-1.35-3.43-2.13-4.33-4.8-1-3.11,1-4.58-.09-7.59-1.14-3.26-3.51-1.67-5.07-6.18-1.07-3.14,1.22-4.54.16-6.85-1.75-3.81-7.9-.71-10-5.37s4.47-5.74,3.49-8.24c-1.1-2.8-7,2-9.08-4.26-1.12-3.34,4.74-3.53,4.25-5.27-.56-2-8.42-.26-9.7-3s5.84-5.13,4.06-9.79c-1.19-3.1-9.85,2.57-11.05-3.64-.83-4.27,5.36-6.62,4.26-9.31-1.24-3-9.9,2.12-11.75-3.4-1.31-3.91,4.76-4.45,4.06-6.53-.57-1.73-4.6-1.16-5.06-2.93-.26-1,.88-2.18,2.53-3.83,1.42-1.43,2.25-2.26,3.33-2.21,1.4.06,1.54,1.5,3.27,2.44,2.81,1.52,4.92-1.67,6.44.56,1.74,2.54-3,4.45-2.11,6.69,1.06,2.56,7-.45,8.49,3.41s-5.74,5.29-3.9,9.46,10.81.52,12.44,4c2.72,5.73-4.79,7.4-3.12,10.06s8.25-.29,10.12,2.59c1.42,2.19-1.8,4.81-.4,8.56,1.16,3.09,4,3,4.25,5.37.41,3.43-5.3,5.56-4.63,8.08.54,2.06,4.44,1.17,6.53,4.07,1.7,2.37.38,4.73.67,9.29.19,3.11,1,5,3.19,10.35A118.88,118.88,0,0,1,303.15,743c3.14,8.43,8.51,18.69,4.75,21.79C306.86,765.59,304,767,303.5,765.4Z" transform="translate(-202 -285.02)"/><path class="cls-28" d="M306.92,767.4a384.24,384.24,0,0,0-17.08-56.72,383.15,383.15,0,0,0-35.08-68.85" transform="translate(-202 -285.02)"/><path class="cls-17" d="M310.42,769.22c4.55-9.73-6.76-20.14-2.52-28.18a7.7,7.7,0,0,0,1.35-3.92c0-3.72-3.78-4.93-3.61-7.58.22-3.44,6.72-4,6.93-7.11s-6.25-3.95-7.12-8.53c-.73-3.85,3.43-5.33,3-10.07-.38-4.41-4.34-3.45-3.61-8.38.48-3.24,7.63-2.14,8.69-7.44.79-3.94-8-6.13-7.52-8.93.32-1.88,10.63-1.27,10.53-5.12-.13-4.69-7.17-5.3-6.8-9.17.26-2.76,11.61-2.74,10.28-9-1-4.56-8.94-3-9.43-5.9-.73-4.41,11.65-5.73,11.16-10.39-.33-3.14-9.42-3.83-9.43-6.69,0-1.9,5.39-1.06,5.13-4.41-.23-2.92-6-4-7-8.84-.49-2.33-.36-3.9-1.39-5.1-1.41-1.64-5.19-1.34-6.69-.16-3,2.4,2.58,6.15,1,8.46-1.46,2.1-5.74-.92-6.87,1.77-1.64,3.94,9.71,11.24,8,14.36-1.22,2.25-8.45-2.23-9.26,1.77-1.16,5.75,11.2,11.33,9.53,14.91-1.26,2.72-10.28.08-10.77,2.82-1.3,7.26,9.24,9.28,8.88,13-.28,2.9-9-2.92-9.41,3.69-.49,7.67,8.5,4.62,8.94,10.85.35,5.11-8.69,4.15-8.35,7.6.63,6.36,7.34,3.55,8.38,10,.88,5.44-5.15,3.25-5.56,6.39-.52,4,6.47,6.72,5.61,10.37-.47,2-2.2,1.44-2.9,4.14-.81,3.17,2.48,6.22,4.21,12.46.91,3.3.26,4.57,0,10.38-.46,11.11,1.16,24.76,3.88,25.07C308.93,772.39,310.15,769.79,310.42,769.22Z" transform="translate(-202 -285.02)"/><path class="cls-29" d="M308.11,775.56c-2.79-42.86-5.82-66.07-5.38-82,.47-17.43,3.95-24,4.52-47.42.32-12.73-.16-23.2-.62-30.11" transform="translate(-202 -285.02)"/><path class="cls-30" d="M310.28,782.64c-1.08-15,.18-35.11,12.57-51.48,9.72-12.85,17.55-11.83,22.72-23.5,7.43-16.75-4.08-29.24-6.14-59.92a136.14,136.14,0,0,1,2.49-36.47" transform="translate(-202 -285.02)"/><rect class="cls-8" x="52.99" y="544.16" width="215.77" height="8.14" rx="4.07" ry="4.07"/><rect class="cls-8" x="417.91" y="866.31" width="75.99" height="2.35" rx="1.18" ry="1.18" transform="translate(-357.6 1348.26) rotate(-113.67)"/><polyline class="cls-8" points="269.76 615.72 242.54 548.23 235.38 548.23 267.61 616.66"/><rect class="cls-8" x="229.34" y="866.31" width="75.99" height="2.35" rx="1.18" ry="1.18" transform="translate(-836.5 479.08) rotate(-66.33)"/><polyline class="cls-8" points="49.48 615.72 76.7 548.23 83.86 548.23 51.63 616.66"/><rect class="cls-8" x="556.56" y="764.34" width="75.99" height="2.35" rx="1.18" ry="1.18" transform="translate(-69.89 1332.35) rotate(-113.67)"/><polyline class="cls-8" points="408.42 513.75 381.2 446.26 374.04 446.26 406.26 514.69"/><rect class="cls-8" x="509" y="764.34" width="75.99" height="2.35" rx="1.18" ry="1.18" transform="translate(-575.71 674.18) rotate(-66.33)"/><polyline class="cls-8" points="329.14 513.75 356.36 446.26 363.51 446.26 331.29 514.69"/><line class="cls-31" x1="352.36" y1="463.92" x2="391.23" y2="480.39"/><line class="cls-31" x1="384.23" y1="463.92" x2="345.36" y2="480.39"/><path class="cls-32" d="M521.64,728c2,10.11,20.37,7.5,49.17,5.2,23.37-1.86,35.05-2.8,40.5-7.81,13.4-12.32.67-27.66,11.57-63,7.25-23.55,19-36.68,13-44-3.07-3.74-10-4.52-15.62-2.89-25.71,7.4-23.38,42.94-28.69,76.39-.59,3.71-11.09,17.92-28.58,18.77-18.92.93-28.28.47-34.89,3.24C523.12,716,519.6,717.8,521.64,728Z" transform="translate(-202 -285.02)"/><rect class="cls-10" x="78.78" y="481.24" width="47.5" height="62.52" rx="12" ry="12"/></svg>