<svg id="Layer_1" data-name="Layer 1" xmlns="http://www.w3.org/2000/svg" xmlns:xlink="http://www.w3.org/1999/xlink" viewBox="0 0 351.64 450.25"><defs><style>.cls-1,.cls-13,.cls-14,.cls-2,.cls-3,.cls-4,.cls-9{fill:none;stroke-miterlimit:10;}.cls-1{stroke:#45bfb0;}.cls-1,.cls-14,.cls-3,.cls-9{stroke-linecap:round;}.cls-1,.cls-2,.cls-3,.cls-4{stroke-width:5px;}.cls-2{stroke:#2fe6a6;}.cls-3,.cls-4{stroke:#e6e7e8;}.cls-5{fill:#ebf0f5;}.cls-6{fill:#c1c4c6;}.cls-7{fill:#45bfb0;}.cls-8{fill:url(#linear-gradient);}.cls-9{stroke:#201d1e;}.cls-10{fill:url(#linear-gradient-2);}.cls-11{fill:#201d1e;}.cls-12{fill:#4defb1;}.cls-13{stroke:#c1c4c6;}.cls-14{stroke:#fff;}</style><linearGradient id="linear-gradient" x1="444.01" y1="801.68" x2="492.8" y2="801.68" gradientUnits="userSpaceOnUse"><stop offset="0" stop-color="#4defb1"/><stop offset="1" stop-color="#45bfb0"/></linearGradient><linearGradient id="linear-gradient-2" x1="444.01" y1="697.79" x2="493.71" y2="697.79" xlink:href="#linear-gradient"/></defs><title>person1</title><line class="cls-1" x1="230.1" y1="11.03" x2="245.46" y2="11.03"/><line class="cls-1" x1="237.78" y1="18.71" x2="237.78" y2="3.35"/><circle class="cls-2" cx="341.46" cy="73.32" r="7.68"/><circle class="cls-2" cx="219.15" cy="151.69" r="7.68"/><line class="cls-1" x1="303.89" y1="164.48" x2="319.24" y2="164.48"/><line class="cls-1" x1="311.56" y1="172.16" x2="311.56" y2="156.8"/><line class="cls-3" x1="261.53" y1="134.58" x2="276.89" y2="134.58"/><line class="cls-3" x1="269.21" y1="142.26" x2="269.21" y2="126.9"/><circle class="cls-4" cx="192.13" cy="9.8" r="7.3"/><ellipse class="cls-5" cx="217.25" cy="436.25" rx="72.55" ry="14"/><polygon class="cls-6" points="196.87 134.64 206.58 157.86 235.03 121.28 238.97 115.33 227.3 99.97 203.33 110.54 196.87 134.64"/><polygon class="cls-6" points="214.48 409.17 214.48 392.04 222.22 393.71 231.98 401.54 228.82 420.83 214.48 412.34 214.48 409.17"/><path class="cls-6" d="M472.77,767.65s-.08,11.62,0,13.48,0,7.9,0,7.9l9.85,6.81,8.37-4-.94-27.64-17.31-2.79Z" transform="translate(-246.19 -370.5)"/><path class="cls-7" d="M470.88,784.1s-5.27-2.23-6.08-3.65-4.46-4.06-4.46-4.06-7.71,4.26-9.13,6.69-10.13,9.11-12.16,9.52-5.47,1-7.7,3.24-1.22,8.12,1,8.73,5.34.24,8.52,1.42,17.83-1.82,17.83-1.82l12.17-5.11,6.48-6.46Z" transform="translate(-246.19 -370.5)"/><path class="cls-8" d="M444.05,812.15s6.66,5.55,13.87,4.44,30.66-7.91,33.07-11.52,2.41-14.17,0-13.27-5.12.5-8.14,0-8.74-5.68-9.64-5.07-16,15-16,15a54.29,54.29,0,0,0-6.33,2.18c-1.81.9-6.76,2.11-6.85,3.32S444.05,812.15,444.05,812.15Z" transform="translate(-246.19 -370.5)"/><line class="cls-9" x1="223.16" y1="419.69" x2="230.01" y2="424.51"/><line class="cls-9" x1="219.84" y1="422.82" x2="227.7" y2="427.86"/><line class="cls-9" x1="216.54" y1="425.94" x2="223.77" y2="431.18"/><line class="cls-9" x1="213.25" y1="429.08" x2="217.91" y2="432.24"/><line class="cls-9" x1="210.15" y1="412.23" x2="214.93" y2="416.65"/><line class="cls-9" x1="206.09" y1="413.9" x2="212.54" y2="419.75"/><path class="cls-7" d="M471.35,767l-16.59-3.69s-4-16.76-9.72-37.71-8.21-46.58-9.89-60,.29-21-2.2-24.47-5.08-16.19-2.85-25.22,4.41-20.55,4.41-20.55l47.35-13.08,11.85,19.62s-.27,5.6,0,26.46,0,54.5,0,54.5l-.11,47L490.15,767Z" transform="translate(-246.19 -370.5)"/><path class="cls-10" d="M448.45,626.48,444,629l6.53,5s-2-3.49-3.26,7.47,4.71,50.33,8.22,64.28,7,42.74,8.12,48.14,4.3,17.32,6.34,18.06,12.47,1.49,14.89,1.49,6.41-.18,7.95-1.67.61-21.05.8-41.9S486.89,704,486.89,704l6.82-9.91-.91-23.49a54.66,54.66,0,0,1-3.34-13.21c-1.1-8.08-3.67-35.24-3.67-35.24H453.73Z" transform="translate(-246.19 -370.5)"/><path class="cls-5" d="M487,605.69l26.17-29.29s-6.84-72.45-9.26-77.49-15.7-17.13-16.91-17.13-14.85,4.84-14.85,4.84-4.07,10.46-7.29,17.31S454,519.23,454,519.23l-5.23-20.32L444,487.42a6.89,6.89,0,0,0-6.12,3.22c-2.42,3.63-6.85,31.41-6.85,31.41l-4.83,18.11-14.09-13.28-9.26,9.66s10.06,23.35,14.9,30.19A49.35,49.35,0,0,0,429.25,578l6.22-1.21-2.18,24.68,21.51,28.87,19.52-8.16Z" transform="translate(-246.19 -370.5)"/><polygon class="cls-11" points="148.55 129.32 137.7 118.16 147.13 118.16 155.39 128.36 148.55 129.32"/><line class="cls-9" x1="203.7" y1="417.84" x2="209.31" y2="422.1"/><polygon class="cls-6" points="211.11 247.1 229.99 223.28 240.81 235.19 228.13 251.68 218.54 257.62 211.11 256.38 211.11 247.1"/><line class="cls-9" x1="199.87" y1="420.83" x2="204.65" y2="424.65"/><path class="cls-6" d="M449.24,479.17s-9,2.82-10.76,1.54-5.38-8.2-5.38-8.2h-3.85V446.38l10-6.66,10,9.74,7.63,12Z" transform="translate(-246.19 -370.5)"/><path class="cls-6" d="M404.8,538l-9.59-19.5s-6-10.38-6-11.32,2-9,2-9l8.18-1.42s7.07,6.45,7.07,8.34-.94,7.86,0,10.69,7.39,15.57,7.39,15.57Z" transform="translate(-246.19 -370.5)"/><path class="cls-11" d="M427.18,451.41s-2.85-10.3,5.91-14.46,9.86-6.13,18.62-5,13.8,4.6,18,13.58S487,481.78,487,481.78l-9.17,2.86-3.56-6.51v6.51l-7,4-5.91-8.56,1.53,9.86-9,3.29-3.07-7.89.22,11.47-6.79,2.08.88-33.65s3.5-.71,3.06-2-2.41-4.82-3.94-4.82-6.35-7.67-6.35-7.67-.44-5.26-2-4.6-5.26,5.48-5.26,5.48Z" transform="translate(-246.19 -370.5)"/><rect class="cls-5" y="3.38" width="112.75" height="41.73" rx="12" ry="12"/><rect class="cls-12" x="30" y="58.38" width="112.75" height="41.73" rx="12" ry="12"/><rect class="cls-5" y="114.38" width="112.75" height="41.73" rx="12" ry="12"/><line class="cls-13" x1="16.13" y1="17.33" x2="91.98" y2="17.33"/><line class="cls-13" x1="16.13" y1="24.33" x2="91.98" y2="24.33"/><line class="cls-13" x1="16.13" y1="31.33" x2="91.98" y2="31.33"/><line class="cls-13" x1="16.13" y1="134.33" x2="91.98" y2="134.33"/><line class="cls-13" x1="16.13" y1="141.33" x2="91.98" y2="141.33"/><line class="cls-14" x1="48.13" y1="73.33" x2="123.98" y2="73.33"/><line class="cls-14" x1="48.13" y1="80.33" x2="123.98" y2="80.33"/><line class="cls-14" x1="48.13" y1="87.33" x2="123.98" y2="87.33"/></svg>