<svg id="Layer_1" data-name="Layer 1" xmlns="http://www.w3.org/2000/svg" xmlns:xlink="http://www.w3.org/1999/xlink" viewBox="0 0 306 663.61"><defs><style>.cls-1{fill:none;}.cls-2{clip-path:url(#clip-path);}.cls-3{fill:#fff;}</style><clipPath id="clip-path" transform="translate(-269 -264.94)"><rect class="cls-1" x="269" y="264.94" width="306" height="663.61"/></clipPath></defs><title>phoneOutline</title><g class="cls-2"><path class="cls-3" d="M269,899.28V294.78s-1.06-26.61,28.74-28.73,34.05-.54,34.05-.54,3.2-.53,3.2,3.73,1.06,20.22,17,20.22H491.44s17-1.06,17-20.22c0,0-1.06-4.26,5.32-4.26s23.42,0,35.12,1.07.05,0,.05,0,25.5,3.19,25.5,27.67,0,592.79.53,605.56S558.49,928,547.85,928c0,0-246.91.53-254.36.53s-25-12.24-24.48-29.27" transform="translate(-269 -264.94)"/></g></svg>