<svg id="Layer_1" data-name="Layer 1" xmlns="http://www.w3.org/2000/svg" xmlns:xlink="http://www.w3.org/1999/xlink" viewBox="0 0 307 562.39"><defs><style>.cls-1{fill:none;}.cls-2{clip-path:url(#clip-path);}.cls-3{opacity:0.01;}.cls-4{clip-path:url(#clip-path-3);}.cls-5{fill:#ebf0f5;}.cls-6{fill:#201d1e;}.cls-7{fill:#2fe6a6;}.cls-8{fill:#231f20;}</style><clipPath id="clip-path" transform="translate(-323 -281.16)"><rect class="cls-1" x="323" y="281.16" width="307" height="562.39"/></clipPath><clipPath id="clip-path-3" transform="translate(-323 -281.16)"><rect class="cls-1" x="314" y="274.16" width="325" height="570.39"/></clipPath></defs><title>phoneOutline3</title><g class="cls-2"><g class="cls-2"><g class="cls-3"><g class="cls-4"><rect class="cls-5" width="307" height="562.39"/></g></g></g></g><path class="cls-6" d="M429.73,502.58v4.08a2.11,2.11,0,0,1-.44,1.45,1.49,1.49,0,0,1-1.16.48,1.46,1.46,0,0,1-1.13-.48,2.11,2.11,0,0,1-.43-1.45v-4.89a16.19,16.19,0,0,0-.08-1.8,1.85,1.85,0,0,0-.43-1.05,1.35,1.35,0,0,0-1.1-.42,2,2,0,0,0-2,1,7.28,7.28,0,0,0-.48,3v4.15a2.13,2.13,0,0,1-.44,1.45,1.44,1.44,0,0,1-1.14.48,1.5,1.5,0,0,1-1.14-.48,2.08,2.08,0,0,1-.44-1.45v-8.78a1.91,1.91,0,0,1,.4-1.32,1.32,1.32,0,0,1,1.05-.45,1.42,1.42,0,0,1,1,.42,1.58,1.58,0,0,1,.42,1.17V498a5.27,5.27,0,0,1,1.71-1.41,4.52,4.52,0,0,1,2-.45,4.15,4.15,0,0,1,2,.46,3.69,3.69,0,0,1,1.37,1.4,5.33,5.33,0,0,1,1.66-1.4,4.2,4.2,0,0,1,2-.46,4.46,4.46,0,0,1,2.17.5,3.14,3.14,0,0,1,1.36,1.41,6.39,6.39,0,0,1,.4,2.63v6a2.11,2.11,0,0,1-.44,1.45,1.62,1.62,0,0,1-2.3,0,2.08,2.08,0,0,1-.45-1.45V501.5a11.42,11.42,0,0,0-.08-1.59,1.82,1.82,0,0,0-.46-1,1.44,1.44,0,0,0-1.12-.41,2.07,2.07,0,0,0-1.15.37,2.33,2.33,0,0,0-.85,1A7.57,7.57,0,0,0,429.73,502.58Z" transform="translate(-323 -281.16)"/><path class="cls-6" d="M448.81,506.86a9.48,9.48,0,0,1-2.15,1.3,6,6,0,0,1-2.34.43,4.42,4.42,0,0,1-2.07-.46,3.4,3.4,0,0,1-1.38-1.27,3.29,3.29,0,0,1-.48-1.73,3.07,3.07,0,0,1,.8-2.15,4,4,0,0,1,2.19-1.19c.19-.05.68-.15,1.45-.3s1.43-.31,2-.44,1.14-.29,1.79-.48a3.2,3.2,0,0,0-.49-1.78,2.19,2.19,0,0,0-1.79-.57,3.69,3.69,0,0,0-1.76.33,2.8,2.8,0,0,0-1,1c-.28.43-.48.72-.59.86a1,1,0,0,1-.75.21,1.29,1.29,0,0,1-.89-.33,1.08,1.08,0,0,1-.38-.85,2.62,2.62,0,0,1,.57-1.58,4.09,4.09,0,0,1,1.79-1.26,8.08,8.08,0,0,1,3-.49,8.74,8.74,0,0,1,3.18.47,3,3,0,0,1,1.64,1.52,6.75,6.75,0,0,1,.47,2.74v1.84c0,.5,0,1.06,0,1.67a6.26,6.26,0,0,0,.29,1.81,5.79,5.79,0,0,1,.29,1.21,1.14,1.14,0,0,1-.45.86,1.53,1.53,0,0,1-1,.38,1.34,1.34,0,0,1-.93-.44A6.92,6.92,0,0,1,448.81,506.86Zm-.2-4.44a15.64,15.64,0,0,1-2,.52c-.86.19-1.46.32-1.79.41a2.33,2.33,0,0,0-.94.5,1.31,1.31,0,0,0-.45,1.06,1.55,1.55,0,0,0,.53,1.18,1.93,1.93,0,0,0,1.38.49,3.53,3.53,0,0,0,1.68-.4,2.59,2.59,0,0,0,1.13-1,4.64,4.64,0,0,0,.42-2.29Z" transform="translate(-323 -281.16)"/><path class="cls-6" d="M456.41,496.38h.33v-1.85c0-.49,0-.88,0-1.16a1.84,1.84,0,0,1,.22-.73,1.34,1.34,0,0,1,.52-.51,1.53,1.53,0,0,1,1.81.25,1.3,1.3,0,0,1,.4.71,6.24,6.24,0,0,1,.08,1.2v2.09h1.13a1.4,1.4,0,0,1,1,.31,1,1,0,0,1,.35.79.91.91,0,0,1-.49.87,3.26,3.26,0,0,1-1.4.24h-.58v5.65a7.79,7.79,0,0,0,.06,1.11,1.13,1.13,0,0,0,.26.63,1,1,0,0,0,.72.24,4.06,4.06,0,0,0,.73-.09,3.44,3.44,0,0,1,.72-.1.92.92,0,0,1,.67.3,1,1,0,0,1,.3.73,1.23,1.23,0,0,1-.81,1.14,5.54,5.54,0,0,1-2.33.39,4,4,0,0,1-2.18-.48,2.26,2.26,0,0,1-1-1.34,9.25,9.25,0,0,1-.23-2.28v-5.9h-.4a1.45,1.45,0,0,1-1-.31,1,1,0,0,1-.35-.8,1,1,0,0,1,.36-.79A1.61,1.61,0,0,1,456.41,496.38Z" transform="translate(-323 -281.16)"/><path class="cls-6" d="M476.56,504.79a2.69,2.69,0,0,1-.35,1.23,4.19,4.19,0,0,1-1,1.24,5.32,5.32,0,0,1-1.77.95,7.58,7.58,0,0,1-2.41.36,5.88,5.88,0,0,1-4.45-1.66,6.15,6.15,0,0,1-1.59-4.45,7.3,7.3,0,0,1,.73-3.34,5.31,5.31,0,0,1,2.11-2.24,6.57,6.57,0,0,1,3.31-.79,6.41,6.41,0,0,1,2.19.35,6,6,0,0,1,1.69.89,4.23,4.23,0,0,1,1,1.18,2.27,2.27,0,0,1,.37,1.16,1.26,1.26,0,0,1-.41.94,1.45,1.45,0,0,1-1,.38,1,1,0,0,1-.63-.2,3.06,3.06,0,0,1-.57-.63,4.63,4.63,0,0,0-1.18-1.28,2.58,2.58,0,0,0-1.55-.43,2.66,2.66,0,0,0-2.2,1.06,4.64,4.64,0,0,0-.83,2.91,5.67,5.67,0,0,0,.21,1.59,3.7,3.7,0,0,0,.62,1.24,2.61,2.61,0,0,0,1,.77,2.91,2.91,0,0,0,1.26.27,2.79,2.79,0,0,0,1.58-.43,3.74,3.74,0,0,0,1.17-1.3,2.84,2.84,0,0,1,.6-.81,1.15,1.15,0,0,1,.8-.3,1.18,1.18,0,0,1,.93.43A1.38,1.38,0,0,1,476.56,504.79Z" transform="translate(-323 -281.16)"/><path class="cls-6" d="M483.27,493.41V498a6.13,6.13,0,0,1,1.15-1.06,3.89,3.89,0,0,1,1.23-.59,4.84,4.84,0,0,1,1.45-.2,4.22,4.22,0,0,1,2.07.49A3.54,3.54,0,0,1,490.6,498a3.58,3.58,0,0,1,.43,1.24,9,9,0,0,1,.12,1.56v5.89a2,2,0,0,1-.43,1.39,1.4,1.4,0,0,1-1.11.47c-1,0-1.52-.62-1.52-1.86v-5.19a4.74,4.74,0,0,0-.44-2.26,1.74,1.74,0,0,0-1.67-.8,2.53,2.53,0,0,0-1.48.47,2.88,2.88,0,0,0-1,1.28,8.28,8.28,0,0,0-.25,2.44v4.06a2.06,2.06,0,0,1-.41,1.39,1.4,1.4,0,0,1-1.14.47c-1,0-1.52-.62-1.52-1.86V493.41a2.09,2.09,0,0,1,.4-1.4,1.41,1.41,0,0,1,1.12-.47,1.43,1.43,0,0,1,1.14.47A2.05,2.05,0,0,1,483.27,493.41Z" transform="translate(-323 -281.16)"/><path class="cls-6" d="M498.17,493.3V498a7.23,7.23,0,0,1,1.77-1.38,4.67,4.67,0,0,1,2.22-.48,4.91,4.91,0,0,1,2.69.73,4.68,4.68,0,0,1,1.78,2.1,7.66,7.66,0,0,1,.64,3.27,9,9,0,0,1-.35,2.56,6.21,6.21,0,0,1-1,2,4.65,4.65,0,0,1-1.64,1.32,4.81,4.81,0,0,1-2.12.46,5.16,5.16,0,0,1-1.33-.16,4.05,4.05,0,0,1-1.07-.45,4.11,4.11,0,0,1-.74-.57,11,11,0,0,1-.82-.87v.3a1.84,1.84,0,0,1-.42,1.31,1.35,1.35,0,0,1-1.05.44,1.29,1.29,0,0,1-1-.44,1.93,1.93,0,0,1-.39-1.31V493.43a2.2,2.2,0,0,1,.38-1.41,1.26,1.26,0,0,1,1.05-.48,1.34,1.34,0,0,1,1.09.46A2,2,0,0,1,498.17,493.3Zm.15,9.12a4.24,4.24,0,0,0,.84,2.82,2.74,2.74,0,0,0,2.19,1,2.5,2.5,0,0,0,2-1,4.38,4.38,0,0,0,.84-2.88,5.68,5.68,0,0,0-.35-2.09,3,3,0,0,0-1-1.36,2.44,2.44,0,0,0-1.5-.48,2.67,2.67,0,0,0-1.56.48,3.13,3.13,0,0,0-1.08,1.39A5.4,5.4,0,0,0,498.32,502.42Z" transform="translate(-323 -281.16)"/><path class="cls-6" d="M522.38,502.35a7.11,7.11,0,0,1-.43,2.53,5.4,5.4,0,0,1-1.23,2,5.47,5.47,0,0,1-1.94,1.28,6.75,6.75,0,0,1-2.53.44,6.68,6.68,0,0,1-2.51-.45,5.45,5.45,0,0,1-3.16-3.26,7.07,7.07,0,0,1-.43-2.53,7.41,7.41,0,0,1,.43-2.55,5.72,5.72,0,0,1,1.23-2,5.46,5.46,0,0,1,1.93-1.27,7,7,0,0,1,2.51-.44,6.82,6.82,0,0,1,2.53.45,5.41,5.41,0,0,1,3.18,3.26A7.34,7.34,0,0,1,522.38,502.35Zm-3.08,0a4.61,4.61,0,0,0-.83-2.92,2.68,2.68,0,0,0-2.22-1.05,2.73,2.73,0,0,0-1.58.47,3,3,0,0,0-1.06,1.38,5.5,5.5,0,0,0-.37,2.12,5.69,5.69,0,0,0,.36,2.11,3,3,0,0,0,1,1.37,2.89,2.89,0,0,0,3.82-.57A4.6,4.6,0,0,0,519.3,502.35Z" transform="translate(-323 -281.16)"/><path class="cls-6" d="M532.5,507.32l-2.23-3.27L528,507.32a5.48,5.48,0,0,1-.83,1,1.28,1.28,0,0,1-.88.29,1.44,1.44,0,0,1-1-.36,1.1,1.1,0,0,1-.41-.84,2.81,2.81,0,0,1,.63-1.38l2.78-4-2.47-3.32a2.55,2.55,0,0,1-.64-1.43,1.08,1.08,0,0,1,.38-.82,1.46,1.46,0,0,1,1-.35,1.33,1.33,0,0,1,.89.3,5.88,5.88,0,0,1,.83,1l2,2.72,1.93-2.72a5.64,5.64,0,0,1,.84-1,1.37,1.37,0,0,1,.88-.29,1.49,1.49,0,0,1,1,.34,1.05,1.05,0,0,1,.4.83,1.47,1.47,0,0,1-.16.67,5.7,5.7,0,0,1-.5.76L532.2,502l2.78,4a2.86,2.86,0,0,1,.65,1.4,1.07,1.07,0,0,1-.4.84,1.5,1.5,0,0,1-1,.34,1.4,1.4,0,0,1-.9-.3A4.89,4.89,0,0,1,532.5,507.32Z" transform="translate(-323 -281.16)"/><path class="cls-7" d="M492.52,468.72a2,2,0,0,1-2-2V425.26a2,2,0,0,1,4,0v41.46A2,2,0,0,1,492.52,468.72Z" transform="translate(-323 -281.16)"/><path class="cls-7" d="M460.52,480.72a2,2,0,0,1-2-2V437.26a2,2,0,0,1,4,0v41.46A2,2,0,0,1,460.52,480.72Z" transform="translate(-323 -281.16)"/><path class="cls-8" d="M475.52,438.26a2,2,0,0,1-1.25-.44A2,2,0,0,1,474,435l17-21.2a2,2,0,1,1,3.12,2.51l-17,21.19A2,2,0,0,1,475.52,438.26Z" transform="translate(-323 -281.16)"/><path class="cls-8" d="M475.52,438.26a2.16,2.16,0,0,1-.88-.2l-13-6.35a2,2,0,1,1,1.76-3.59l13,6.34a2,2,0,0,1-.88,3.8Z" transform="translate(-323 -281.16)"/></svg>