<svg id="Layer_1" data-name="Layer 1" xmlns="http://www.w3.org/2000/svg" xmlns:xlink="http://www.w3.org/1999/xlink" viewBox="0 0 423.35 594.33"><defs><style>.cls-1{fill:#ebf0f5;}.cls-2{opacity:0.14;fill:url(#linear-gradient);}.cls-14,.cls-16,.cls-3,.cls-6{fill:none;}.cls-3,.cls-6{stroke:#4defb1;stroke-linecap:round;stroke-linejoin:round;}.cls-4{fill:url(#linear-gradient-2);}.cls-5{fill:url(#linear-gradient-3);}.cls-6{stroke-width:2px;}.cls-7{fill:#2fe6a6;}.cls-8{fill:url(#linear-gradient-4);}.cls-9{fill:url(#linear-gradient-5);}.cls-10{fill:url(#linear-gradient-6);}.cls-11{fill:url(#linear-gradient-7);}.cls-12{fill:url(#linear-gradient-8);}.cls-13{fill:#201d1e;}.cls-15{fill:#45bfb0;}.cls-16{stroke-miterlimit:10;stroke:url(#linear-gradient-9);}.cls-17{fill:url(#linear-gradient-10);}</style><linearGradient id="linear-gradient" x1="14.23" y1="352.31" x2="409.12" y2="352.31" gradientUnits="userSpaceOnUse"><stop offset="0" stop-color="#4defb1"/><stop offset="1" stop-color="#45bfb0"/></linearGradient><linearGradient id="linear-gradient-2" x1="366.49" y1="389.53" x2="432.13" y2="389.53" xlink:href="#linear-gradient"/><linearGradient id="linear-gradient-3" x1="308.71" y1="439.11" x2="391.85" y2="439.11" xlink:href="#linear-gradient"/><linearGradient id="linear-gradient-4" x1="370.31" y1="85.64" x2="381.44" y2="85.64" xlink:href="#linear-gradient"/><linearGradient id="linear-gradient-5" x1="244.25" y1="319.67" x2="259.61" y2="319.67" xlink:href="#linear-gradient"/><linearGradient id="linear-gradient-6" x1="290.97" y1="285.62" x2="306.33" y2="285.62" xlink:href="#linear-gradient"/><linearGradient id="linear-gradient-7" x1="334.6" y1="239.2" x2="349.96" y2="239.2" xlink:href="#linear-gradient"/><linearGradient id="linear-gradient-8" x1="342.28" y1="172.28" x2="357.64" y2="172.28" xlink:href="#linear-gradient"/><linearGradient id="linear-gradient-9" x1="390.09" y1="447.39" x2="493.56" y2="447.39" xlink:href="#linear-gradient"/><linearGradient id="linear-gradient-10" x1="335.96" y1="627.68" x2="447.75" y2="627.68" xlink:href="#linear-gradient"/></defs><title>plant2</title><ellipse class="cls-1" cx="210.96" cy="575.64" rx="188.35" ry="18.69"/><ellipse class="cls-2" cx="211.67" cy="352.31" rx="197.45" ry="143.84"/><ellipse class="cls-3" cx="211.67" cy="352.31" rx="211.17" ry="153.84"/><path class="cls-4" d="M396.94,538.24c.15-5.63.22-8.44-.72-11.57s-2.33-6.2-2.2-10.61c.15-5.24,3.11-5.75,3.26-9.46.34-8-12.25-10.82-12.09-17.77.14-6.4,10.88-7.69,11.22-14.12.41-7.63-14.44-11.14-13.91-18.16.49-6.71,14.37-7.7,15-13.95.86-8.67-25.09-11.79-24.33-22.9.79-11.6,23.1-9.81,22.92-15.45-.18-5.84-24.31-1-24.91-14.14-.64-14,21.09-10.53,21-18.4-.09-8.35-24.77-5.65-24.37-19.73.32-11.39,19.06-5,19.28-16.22.18-8.76-21.6-7.38-20.56-22.74.53-7.85,21-9.29,21.23-16.44.23-6.59-17.57-3.76-16.73-16.85.44-6.85,15-8.75,15.64-17,.57-7.13-10.25-10.42-9.07-17.13.88-5,6.5-3.19,10.19-9.36,5.46-9.14,1.6-15.29,9.68-15.62,2-.08,4.23,3.43,4.91,6.75,1.76,8.45-6.87,13.56-5.32,19.17,1.64,5.9,15.11-.29,16.71,8,3.1,15.91-11.88,15.68-12.06,24.08-.13,6.1,13.21,4.21,13.76,9.89,1.47,15-18,16.87-16.09,25.13s26.46,1,25.52,14.28c-1.11,15.72-22.5,17.35-20.73,26.06s27.74,1,27.95,14.78-23.3,11.08-22.83,18c.43,6.19,21.74.47,20.54,13.85-1.13,12.64-21.58,8.78-22.26,21.3-.69,12.84,23.35,11.29,22.55,19.35-1.56,15.75-19.55,11-19.19,18.77.27,5.62,10.6,6.63,11.18,13.14.61,6.88-10.54,9.51-10.79,18-.19,6.68,6.58,8.08,5.81,14.54-.68,5.75-6.25,6.42-8.93,15.24-.78,2.57-.91,4.59-1.19,8.63-.13,2-.26,5.33.44,15.94.55,8.36.87,10-.49,11.32-2.51,2.47-8.76,2-11.18-1.1S396.65,549.43,396.94,538.24Z" transform="translate(-189.89 -220.63)"/><path class="cls-5" d="M379.29,568.86c-.91-4.92-1.36-7.38-2.76-9.93s-3.16-5-3.86-8.82c-.83-4.58,1.65-5.57,1.1-8.82-1.17-7-12.64-7.16-13.78-13.23-1.05-5.59,8.05-8.69,7.17-14.34-1.05-6.71-14.6-7-15.44-13.23-.8-5.93,11.09-9.34,10.48-14.89-.85-7.69-24-5.64-25.37-15.44-1.44-10.22,18.28-12.77,17.1-17.64-1.23-5-21.33,3.57-24.26-7.72-3.14-12.07,16.4-13,14.88-19.85-1.61-7.24-22.57-.36-24.81-12.68-1.81-10,15.65-7.86,13.79-17.64-1.46-7.65-20.14-2.45-22.06-16-1-6.93,16.54-11.94,15.44-18.2-1-5.77-16,0-17.64-11.58-.88-6,11.41-10.36,10.47-17.64-.81-6.31-10.82-7.18-11-13.23-.15-4.49,5.07-4,7.14-10,3.07-8.94-1.42-13.59,5.55-15.35,1.73-.45,4.3,2.2,5.51,5,3.08,7-3.49,13.05-1.1,17.64,2.5,4.84,13.07-3,16,3.86,5.61,13.27-7.46,15.82-6.07,23.16,1,5.33,12.26,1.23,13.78,6.06,4,12.79-12.53,18-9.37,24.81s23.19-4,24.81,7.72c1.93,13.88-16.37,19.22-13.23,26.47s24.29-4.25,27,7.72-18.23,13.91-16.54,19.85c1.5,5.3,19-3.59,20.4,8.27,1.34,11.2-17.16,11.59-15.44,22.6,1.76,11.3,22.37,5.53,23.16,12.68,1.53,14-15,13.17-13.24,19.85,1.27,4.84,10.43,3.81,12.13,9.38,1.8,5.86-7.41,10.19-6.06,17.64,1.05,5.84,7.2,5.82,7.72,11.58.46,5.12-4.26,6.73-5,14.88a31.67,31.67,0,0,0,.56,7.72c.25,1.79.75,4.69,3.3,13.79,2,7.16,2.59,8.51,1.66,9.92-1.73,2.62-7.25,3.36-9.93,1.1S381.09,578.64,379.29,568.86Z" transform="translate(-189.89 -220.63)"/><path class="cls-6" d="M382.75,567.7a684.3,684.3,0,0,0-21.42-110.21c-8.86-31.29-16.89-50.74-28.05-93.42-7.56-28.91-12.48-52.9-15.46-68.69" transform="translate(-189.89 -220.63)"/><circle class="cls-7" cx="237.64" cy="339.39" r="7.68"/><circle class="cls-7" cx="298.29" cy="379.56" r="2.78"/><circle class="cls-7" cx="316.6" cy="275.39" r="2.78"/><circle class="cls-7" cx="326.6" cy="275.39" r="2.78"/><circle class="cls-7" cx="332.6" cy="223.39" r="2.78"/><circle class="cls-7" cx="342.6" cy="153.39" r="2.78"/><circle class="cls-7" cx="355.6" cy="110.39" r="2.78"/><circle class="cls-7" cx="245.32" cy="327.35" r="5.56"/><circle class="cls-7" cx="267.76" cy="306.43" r="5.56"/><circle class="cls-7" cx="290.97" cy="298.87" r="5.56"/><circle class="cls-7" cx="330.46" cy="267.51" r="5.56"/><circle class="cls-7" cx="342.28" cy="222.61" r="5.56"/><circle class="cls-8" cx="375.88" cy="85.64" r="5.56"/><circle class="cls-7" cx="352.08" cy="159.04" r="5.56"/><circle class="cls-9" cx="251.93" cy="319.67" r="7.68"/><circle class="cls-10" cx="298.65" cy="285.62" r="7.68"/><circle class="cls-11" cx="342.28" cy="239.2" r="7.68"/><circle class="cls-12" cx="349.96" cy="172.28" r="7.68"/><circle class="cls-7" cx="365.32" cy="115.11" r="7.68"/><path class="cls-13" d="M388.19,582c-.42-37.06,8.27-48.66,6.43-69.67-.27-3-5.36-6.47-5.36-12.33,0-6.8,4.9-8.4,4.82-15-.08-7.19-5.81-5.62-5.89-15.55-.06-6.89,5.39-8.15,4.82-13.39-.93-8.66-15.1-6.61-16.08-17.15-.95-10.37,12.61-8.37,12.33-13.94-.31-6.25-15.08-.77-15.08-14.4,0-7.33,11.68-3.83,11.86-7.57.22-4.36-16.42-6.08-17.15-12.33s14.91-6.26,14.48-16.61c-.29-6.89-21.11-1.44-19.37-14.47,1.2-9,14.95-9.51,14.54-15.54-.45-6.71-20.9-2.37-20.9-14.47C357.64,321,370,324,370,319.41c0-3.78-8.32-5.31-8-9.11.16-2.22,3.17-3.73,7.5-5.89,3.74-1.88,5.93-3,8-2.15,2.7,1.05,2,4,4.82,7,4.53,4.85,10.8,0,12.33,5.36,1.75,6.16-8.92,6.77-8.58,11.79.4,5.74,14.15,3.76,14.47,12.33s-14.8,6.63-13.93,16.07c.85,9.26,21,8.18,21.9,16,1.57,13.08-14.32,11.41-12.79,17.76s16.44,4.88,18.22,11.79c1.36,5.26-6.71,8.29-6.43,16.61.24,6.85,5.84,8.56,4.83,13.4-1.47,7-14.12,7.44-14.47,12.86-.29,4.4,8,5.23,10.18,12.33,1.79,5.79-2.37,9.58-4.83,18.76-1.67,6.25-1.34,10.54-.53,22.51,1.74,25.67-.4,38.51-.32,40.73.63,18.69,4.43,42.47-5,46.09C394.7,584.62,388.23,585.43,388.19,582Z" transform="translate(-189.89 -220.63)"/><path class="cls-14" d="M393.61,588.23a795.83,795.83,0,0,0,3.82-123.08A797.51,797.51,0,0,0,373.8,306.27" transform="translate(-189.89 -220.63)"/><path class="cls-15" d="M399.31,594.11C414.7,578,399.3,550,413,536.91c1.64-1.57,4.09-3.3,5.25-6.82,2.41-7.36-4.2-12.21-2.1-17.32,2.72-6.64,15.89-3.43,18.37-9.45s-9.71-11.9-8.4-21.52c1.1-8.07,10.27-8.23,12.6-17.84,2.16-8.94-6.27-9.67-1.58-18.9,3.09-6.08,16.45.83,22-8.92,4.16-7.24-11.7-17.36-8.92-22.57,1.88-3.5,21.8,4.52,24.14-3.14,2.85-9.33-10.63-15.19-7.34-22.57,2.33-5.25,24.69,2.28,26.24-11,1.12-9.61-15.68-11.72-14.7-17.85,1.48-9.19,26.75-3.6,28.87-13.12,1.42-6.39-16.05-13.76-14.17-19.42,1.23-3.73,11.33,1.48,13-5.29,1.47-5.9-9.12-11.87-7.92-22.05.57-4.9,1.86-7.92.62-11-1.7-4.16-9.34-6.06-13.07-4.72-7.57,2.71,1,13.83-3.67,17.32-4.26,3.17-10.7-5.62-14.7-1.05-5.85,6.68,11.7,28.56,6.3,33.59-3.9,3.63-15.18-10-19.42-2.63-6.1,10.56,14.57,29.73,8.92,35.69-4.29,4.52-20.32-6.65-23.09-1.57-7.35,13.46,12.09,24.4,8.92,31.49-2.46,5.51-15.79-11.71-21,1-6,14.79,13.71,14.71,10.45,27.3C436,434.88,418.77,427,417.16,434c-3,13,12.12,11.85,9.92,25.19-1.87,11.32-12.3,3-15.17,8.93-3.7,7.63,8.31,17.51,4.2,24.14-2.23,3.6-5.3,1.39-8.45,6.25-3.7,5.7.77,13.9,0,27.34-.38,7.09-2.51,9.17-6.82,20.47-8.25,21.58-14.08,49.56-8.92,51.95C394.29,599.39,398.4,595.07,399.31,594.11Z" transform="translate(-189.89 -220.63)"/><path class="cls-16" d="M390.57,605.09c22.83-86.32,32.2-134.07,43.58-165.17,12.45-34,23.63-44.68,40.25-90.47,9-24.88,15-45.83,18.67-59.76" transform="translate(-189.89 -220.63)"/><path class="cls-6" d="M390.17,620.47c7.8-30.31,23.55-69.07,58.78-93.14,27.66-18.9,42.41-11.74,60.32-31.31,25.71-28.1,11.28-60.33,27.48-122.15a284.05,284.05,0,0,1,29-70.24" transform="translate(-189.89 -220.63)"/><path class="cls-17" d="M336,575.41l2.12,23.69s6.55,1.41,6.45,3.18,10.16,50.19,10.16,50.19-5.65.71-7.07,2.83-2.82,9.19,0,11.66,6.37,2.83,7.07,6.36a14.55,14.55,0,0,0,2.83,6s28.63,4.6,42.06,3.89,23.69-1.77,26.51-3.18,4.6-6.72,6.72-7.78,6.36-5.3,6.72-9.19-1.42-8.83-6-8.83h-4.6l10.65-49.14a25.78,25.78,0,0,1,4.19-3.53,7.32,7.32,0,0,0,2.48-2.83l1.51-21.56s-1.15-3.74-12.82-4.7-88,0-88,0A15.94,15.94,0,0,0,336,575.41Z" transform="translate(-189.89 -220.63)"/><path class="cls-13" d="M472.11,628.5s5.79-3.74,8.18-7-5.79-5.79-11.41-6.81-20.61-2.39-20.61-2.39l-10.4.09-1.18,4.77s11.95,0,19.23.3,15.73,1.74,17.19,3-6.7,3.71-12.82,4.87-30.88,3.5-40.44,4.08-49.59,0-49.59,0-32.63-3.79-39.62-4.95-9.91-2.33-10.49-4,9-2.7,15.81-3.58a44.31,44.31,0,0,1,11.87,0l-.8-3.54c-3.91.06-6.6.12-7.59.16a105.59,105.59,0,0,0-21.8,3.24c-6,1.7-4.77,6.64-3.06,9s10.11,3.72,10.11,3.72L294.32,796.79h6.88L330.11,631.5,358.3,634l28.9,2.89,2.53,3.25,1.45,156.62h6.67l-1.61-157,1.61-4.34s35.25-1.44,43.2-1.8S466,629.33,466,629.33l28.55,167.46h6.86Z" transform="translate(-189.89 -220.63)"/></svg>