<svg id="Layer_1" data-name="Layer 1" xmlns="http://www.w3.org/2000/svg" viewBox="0 0 403.44 377.37"><defs><style>.cls-1{fill:#4defb1;stroke:#201d1e;}.cls-1,.cls-3,.cls-5{stroke-linecap:round;stroke-linejoin:round;}.cls-2,.cls-3{fill:#201d1e;}.cls-3,.cls-4,.cls-5{stroke:#4defb1;}.cls-4,.cls-5{fill:none;}.cls-4{stroke-miterlimit:10;}</style></defs><title>plant1</title><path class="cls-1" d="M265.52,604.64l2.12,23.69s6.55,1.41,6.46,3.18,10.15,50.19,10.15,50.19-5.65.71-7.07,2.83-2.82,9.19,0,11.66,6.37,2.83,7.07,6.37a14.55,14.55,0,0,0,2.83,6s28.63,4.6,42.06,3.89,23.69-1.76,26.52-3.18,4.59-6.71,6.71-7.77,6.36-5.31,6.72-9.2-1.42-8.83-6-8.83h-4.6l10.65-49.13a25.69,25.69,0,0,1,4.19-3.54A7.32,7.32,0,0,0,375.8,628l1.51-21.56s-1.15-3.74-12.82-4.7-88,0-88,0A15.94,15.94,0,0,0,265.52,604.64Z" transform="translate(-183.88 -335.66)"/><path class="cls-2" d="M502.66,457.29s-84.23,42.19-103,55.72-75.59,62.6-86.38,90.8,2.74,5.58,2.74,5.58,27.33-52.1,70.46-78.84,66.38-50,116.15-67.85S502.66,457.29,502.66,457.29Z" transform="translate(-183.88 -335.66)"/><path class="cls-2" d="M455.06,422.14c10.27-6.56,34.2,21.32,42.19,15.14,1.32-1,2.19-3,.54-21.63-1.91-21.69-3.73-26.42-.54-29.21,5.12-4.49,19.54-.77,24.34,7,1.74,2.83,1.95,5.77,5.41,9.19,3,3,5.67,3.58,8.11,4.87,7.22,3.83,8.32,11.48,12.44,20,5.75,11.9,9.55,9.32,17.85,22.17,6.6,10.22,9.09,19.79,14.06,38.95a207.7,207.7,0,0,1,5.41,26c2.27,16.45,3.88,28.08.54,42.19-2.39,10.1-4.89,11.26-5.41,20-.79,13.53,4.39,24.69,3.79,24.88s-2.27-12.5-11.9-20.55c-5-4.15-6.85-2.71-17.85-7.57a105.07,105.07,0,0,1-26.5-16.77c-7.92-7-6.39-8.1-14.07-14.61-11-9.35-15.24-7.93-22.71-14.6-9.56-8.53-12.65-19.77-15.69-30.83-4.7-17.11-1.43-24.41-9.19-34.08-4.42-5.49-6.83-4.82-10.28-10.27C449.2,442.33,448.71,426.18,455.06,422.14Z" transform="translate(-183.88 -335.66)"/><path class="cls-2" d="M313.31,603.81s42.53-90.25,54.26-107.08,32.12-48.35,32.12-48.35l2.59,4.21s-19.62,27.6-33,50.48-47.86,88.16-52.79,100.74S313.31,603.81,313.31,603.81Z" transform="translate(-183.88 -335.66)"/><path class="cls-3" d="M423.7,392.22c4.14-.52,6.45-20,7.06-28.72.59-8.38.26-16.23,5.65-23.07,1-1.31,3.75-4.67,6.59-4.24s2.91,3.89,6.59,8c4.78,5.34,7.82,3.24,11.77,8,3.74,4.5,1.55,7,5.65,12.71,3.51,4.9,5.85,4.09,8.48,8,3.93,5.84.07,9.64,1.88,18.83,2.16,10.93,8.6,10.53,10.83,22.12,1.08,5.61-.55,5.11.47,16,.77,8.31,1.86,10.09,1.88,16,0,6.52-1.25,9.54-2.35,15.53-2.43,13.29,1,14.34-.47,27.31-.6,5.32-3.23,14.06-8.48,31.54-2,6.57-3.5,11.3-2.82,17.89.81,7.79,4.23,13.43,3.77,13.65s-3.93-8.66-10.83-17.41c-4.94-6.26-11.61-11.24-24.95-21.19-12.58-9.38-14.51-9.77-17.89-14.59-4.61-6.57-4-10.06-9.42-15.54-5.95-6-8.8-3.95-14.12-9.42-6.32-6.49-3.52-10.67-9.89-20.24s-10.6-7.39-13.65-14.59c-4.08-9.61,3.28-13.79-.47-26.37-2.27-7.58-5.78-8.88-5.65-15.53.12-6.35,3.34-6.57,3.76-13.66.48-8-3.47-10.61-1.41-16.95,1.09-3.34,2.28-2.89,4.24-7.53,2.92-6.93,1.3-10.41,3.29-11.77,3.25-2.2,12.29,3.74,19.78,11.77C418.37,375.3,419.74,392.71,423.7,392.22Z" transform="translate(-183.88 -335.66)"/><path class="cls-4" d="M468.43,377.15s-18.84,9.42-22.6,12.71-12.53,5.44-12.53,5.44" transform="translate(-183.88 -335.66)"/><line class="cls-4" x1="270.89" y1="20.78" x2="253.47" y2="36.79"/><path class="cls-4" d="M480.2,416.7s-25.43-5.65-32-6.12-16.91-3.77-16.91-3.77,5.14-29.19,6.08-34.37,3.77-27.77,4.71-29.18" transform="translate(-183.88 -335.66)"/><path class="cls-4" d="M386.51,432.71s18.83-13.66,24.48-16,20.28-9.89,20.28-9.89-1.37,1.89,0,9.89,14.79,44.72,14.79,44.72l34.14,90.39" transform="translate(-183.88 -335.66)"/><polyline class="cls-4" points="197.45 59.64 234.17 62.68 243.8 72.99"/><path class="cls-4" d="M386.51,367.27s10.36,2.82,13.18,5.17,18.36,25.9,18.36,25.9" transform="translate(-183.88 -335.66)"/><path class="cls-4" d="M389.33,354.08s7.07,8,8.48,10.36,1.88,8,1.88,8" transform="translate(-183.88 -335.66)"/><path class="cls-4" d="M431.94,496.73l18.93-22.59c7.39,0,29.33,12.71,29.33,12.71" transform="translate(-183.88 -335.66)"/><path class="cls-4" d="M480.2,448.71s-32.49-12.67-34.14-12-8.71,0-8.71,0-10.35,6.8-13.65,9.63-16.48,22.13-16.48,22.13" transform="translate(-183.88 -335.66)"/><path class="cls-4" d="M505.38,452.59s22.75,34.17,31.06,50.79,38.06,73.94,38.06,73.94" transform="translate(-183.88 -335.66)"/><path class="cls-4" d="M532.94,555.88s-.88-12.28,2.62-20.36,7.88-18.35,7.88-18.35a106.85,106.85,0,0,1,14.44,1.52c7,1.32,22.31,11.86,22.31,11.86" transform="translate(-183.88 -335.66)"/><line class="cls-4" x1="311" y1="187.41" x2="338.65" y2="143.66"/><path class="cls-4" d="M574.5,493.11s-22.31-6.37-31.5-7.67S524.77,483,524.77,483" transform="translate(-183.88 -335.66)"/><path class="cls-4" d="M532.84,412.82,510.21,436.7V460s10.92-1.63,16.6-3.38,15.75-7.87,21-10.06,8.7,0,8.7,0" transform="translate(-183.88 -335.66)"/><polyline class="cls-4" points="326.33 62.68 321.5 71.16 326.33 101.05"/><line class="cls-4" x1="317.12" y1="56.17" x2="321.5" y2="71.16"/><path class="cls-3" d="M264.27,440c-5-3.2,6.17-21.43,2.17-44.65-1.84-10.68-5.32-13.31-7.37-14.31-4.19-2-10.51-1.22-13.43,2.17-2.38,2.75-.84,5.25-3.47,7.8-2.85,2.76-5.81,1-9.11,3.47-3,2.33-2.47,5.37-4.33,9.54-2.86,6.42-7.57,6.73-13.44,12.13-8.2,7.56-4.06,11.62-12.57,23-7.88,10.52-13.89,10.32-15.6,18.2-1.36,6.24,2.32,6.73,1.73,15.61-.65,9.77-5.32,12.45-4.33,20.8.58,4.89,2.21,4.23,3.9,10.41,2.84,10.4-1,15.11,0,27.31.19,2.33,1.28,6.61,3.47,15.17,5.84,22.9,7.84,24.2,7.8,31.64-.08,13.21-6.47,22.37-5.2,23s4.95-7.77,12.13-15.6c9-9.76,14.23-9,27.31-17.77,8.58-5.74,17.28-15.24,34.68-34.25,11.15-12.17,13.62-16,14.74-17.77,4.19-6.72,5.67-11.21,12.57-22.11,3.59-5.67,4.13-5.92,6.07-9.1,6.2-10.16,6.33-16.71,10-29.47,6.56-23,13.39-27.11,11.27-40.32-.52-3.26-1.59-9.45-6.06-11.7-6.09-3.07-14.73,3.05-17.78,5.2-15.44,10.93-16,26.28-30.34,31.21C265.65,440.72,264.64,440.22,264.27,440Z" transform="translate(-183.88 -335.66)"/><polyline class="cls-5" points="70.12 50.57 74.33 56.17 76.06 108.33 20.14 246.5"/><path class="cls-5" d="M242.17,551.81,232,526.06l-2.7-6.32a94,94,0,0,0-11.39,0c-3.9.44-24.27,10.81-24.27,10.81" transform="translate(-183.88 -335.66)"/><path class="cls-5" d="M193.62,490.59S216.16,483,224,483s20.78-1.42,20.78-1.42" transform="translate(-183.88 -335.66)"/><path class="cls-5" d="M193.62,463.48s11.27-9.88,18.64-10.4,42.61.11,42.61.11" transform="translate(-183.88 -335.66)"/><line class="cls-5" x1="58.29" y1="62.68" x2="74.88" y2="72.99"/><path class="cls-5" d="M315.07,411.05s-17.22,7.6-18.41,11.12S259.94,444,259.94,444s-10-10.07-15.2-14-20.49-10-20.49-10" transform="translate(-183.88 -335.66)"/><line class="cls-5" x1="133.28" y1="89.59" x2="112.79" y2="86.51"/><path class="cls-3" d="M310.5,444.41c-3-.52-5.33-7.77-9.95-22.26-3-9.53-3.76-11.81-5.86-15.22-3-4.86-6.42-10.46-12.29-11.13-5.46-.62-11,3.22-13.47,7.61-2.8,4.92-.11,7.55-2.34,14.64-2,6.4-5,6.78-8.2,12.89-4.71,9-.5,12.44-3.52,22.25-4.16,13.55-14.12,13.21-15.81,24-1.27,8.18,4.34,9.05,7.62,22.84,3.94,16.6-2.78,21.31,2.34,35.13,2.9,7.83,5.43,7.32,11.12,17.57,7.86,14.13,5.46,19.43,10.54,32.21,9.22,23.14,23.18,21,31,43.33,5.12,14.54,3.67,28.14,4.69,28.11s-1.68-13.26,4.09-27.53c4.34-10.71,9.36-11.93,19.91-26.93,4.45-6.33,7.65-12.42,14.06-24.6,11.93-22.69,18.29-33.82,19.32-41,1-6.73.69-12.75,4.69-21.08,3.89-8.11,6.55-7.41,8.2-12.88,3.14-10.5-6.37-14.06-8.2-32.79-.77-7.85.5-11.29-1.76-19.91-1.31-5-2.4-6.36-3.51-11.72-1.8-8.64-.57-12.78-1.17-17-1.68-11.64-14.48-23.45-22.84-21.66s-13.66,17.6-15.23,24.59c-1.18,5.25-1.56,11.19-6.44,16.4C315.87,442.08,313.25,444.88,310.5,444.41Z" transform="translate(-183.88 -335.66)"/><line class="cls-4" x1="125.26" y1="132.83" x2="122.16" y2="282.31"/><path class="cls-4" d="M340,577.32s-18.34-18.7-22.16-20.09a82.3,82.3,0,0,1-10.43-5.42,52.61,52.61,0,0,0-10.4,3.68c-4.86,2.43-22.91,18.41-22.91,18.41" transform="translate(-183.88 -335.66)"/><path class="cls-4" d="M256,530.55s19.1-17.42,26.74-21.24,25.72-10.07,25.72-10.07" transform="translate(-183.88 -335.66)"/><path class="cls-4" d="M357.65,538.13s-15.85-15.27-24.18-18.75-25-11.45-25-11.45" transform="translate(-183.88 -335.66)"/><path class="cls-4" d="M364.72,493.11S341,484,333.07,482.23s-23.93-8.09-23.93-8.09" transform="translate(-183.88 -335.66)"/><path class="cls-4" d="M357.65,445.43s-6.82,3.22-15.85,7.16-26.73,10.89-26.73,10.89l-5.93,5h-6.92c-6.92,0-24,2.28-31.6,3.33s-20.83,9.72-20.83,9.72" transform="translate(-183.88 -335.66)"/><path class="cls-4" d="M266.8,433.28s13.58,1.29,15.47,3.42,14.39,8.73,14.39,8.73l12.48,23.06" transform="translate(-183.88 -335.66)"/><path class="cls-4" d="M276.53,408.65s12.84,6.31,13.54,8.87,6.59,27.91,6.59,27.91" transform="translate(-183.88 -335.66)"/><path class="cls-4" d="M315.07,463.48l18-30.2s16.37-11.11,18.45-11.11" transform="translate(-183.88 -335.66)"/><line class="cls-4" x1="157.58" y1="75.4" x2="149.2" y2="97.62"/></svg>